<svg width="722" height="615" viewBox="0 0 722 615" fill="none" xmlns="http://www.w3.org/2000/svg">
<circle cx="343" cy="316" r="88" stroke="#C6C2FF" stroke-width="2" stroke-dasharray="5 16"/>
<circle cx="343" cy="316" r="184" stroke="#C6C2FF" stroke-width="2" stroke-dasharray="5 16"/>
<circle cx="343" cy="316" r="282" stroke="#C6C2FF" stroke-width="2" stroke-dasharray="5 16"/>
<path d="M264.447 75.0431C264.447 78.8323 261.722 81.8031 258.478 81.8031C255.233 81.8031 252.508 78.8323 252.508 75.0431C252.508 71.254 255.233 68.2832 258.478 68.2832C261.722 68.2832 264.447 71.254 264.447 75.0431Z" stroke="#867EFF" stroke-opacity="0.6"/>
<path d="M509.274 99.7286L518.46 86.7989L527.646 99.7286H509.274Z" stroke="#867EFF" stroke-opacity="0.6"/>
<path d="M122.791 18.2258C122.853 17.9421 123.109 17.7568 123.365 17.812L127.527 18.7106C127.782 18.7658 127.94 19.0405 127.879 19.3241C127.817 19.6078 127.561 19.7931 127.305 19.738L123.605 18.9392L122.718 23.0484C122.657 23.3321 122.4 23.5174 122.145 23.4622C121.889 23.4071 121.732 23.1324 121.793 22.8487L122.791 18.2258ZM142.609 53.1012L122.848 18.6183L123.659 18.033L143.42 52.516L142.609 53.1012Z" fill="#867EFF" fill-opacity="0.6"/>
<path d="M412.93 26.0225L414.266 30.6343L414.37 30.9952H414.746H419.217L415.552 33.9832L415.296 34.1921L415.388 34.5097L416.758 39.2412L413.246 36.3783L412.93 36.1207L412.614 36.3783L409.103 39.2412L410.473 34.5097L410.565 34.1921L410.309 33.9832L406.644 30.9952H411.115H411.491L411.595 30.6343L412.93 26.0225Z" stroke="#867EFF" stroke-opacity="0.6"/>
<path d="M135.061 595.945C135.061 599.735 132.335 602.705 129.091 602.705C125.847 602.705 123.122 599.735 123.122 595.945C123.122 592.156 125.847 589.186 129.091 589.186C132.335 589.186 135.061 592.156 135.061 595.945Z" stroke="#867EFF" stroke-opacity="0.6"/>
<path d="M470.232 609.734L461.046 596.805L451.86 609.734H470.232Z" stroke="#867EFF" stroke-opacity="0.6"/>
<path d="M334.108 610.066C333.848 610.058 333.645 609.815 333.654 609.524L333.798 604.775C333.807 604.484 334.025 604.254 334.284 604.262C334.544 604.27 334.747 604.513 334.739 604.804L334.61 609.025L338.373 609.139C338.632 609.147 338.836 609.39 338.827 609.681C338.818 609.972 338.6 610.202 338.34 610.194L334.108 610.066ZM361.055 581.83L334.445 609.921L333.803 609.155L360.413 581.064L361.055 581.83Z" fill="#867EFF" fill-opacity="0.6"/>
<path d="M234.217 542.386L235.552 546.998L235.657 547.359H236.032H240.503L236.839 550.346L236.582 550.555L236.674 550.873L238.044 555.605L234.533 552.742L234.217 552.484L233.901 552.742L230.39 555.605L231.76 550.873L231.852 550.555L231.595 550.346L227.931 547.359H232.401H232.777L232.882 546.998L234.217 542.386Z" stroke="#867EFF" stroke-opacity="0.6"/>
<path d="M24.6289 477.971C24.6289 481.76 21.9038 484.731 18.6597 484.731C15.4156 484.731 12.6904 481.76 12.6904 477.971C12.6904 474.182 15.4156 471.211 18.6597 471.211C21.9038 471.211 24.6289 474.182 24.6289 477.971Z" stroke="#867EFF" stroke-opacity="0.6"/>
<path d="M21.7813 219.156L12.5953 232.086L3.40926 219.156H21.7813Z" stroke="#867EFF" stroke-opacity="0.6"/>
<path d="M77.3358 350.158C77.4213 349.882 77.2872 349.595 77.0362 349.517L72.9463 348.25C72.6953 348.172 72.4226 348.333 72.3371 348.609C72.2516 348.885 72.3857 349.172 72.6367 349.25L76.2722 350.376L75.0338 354.374C74.9483 354.649 75.0824 354.936 75.3334 355.014C75.5844 355.092 75.8571 354.931 75.9426 354.655L77.3358 350.158ZM44.747 369.527L77.0933 350.47L76.6695 349.564L44.3233 368.621L44.747 369.527Z" fill="#867EFF" fill-opacity="0.6"/>
<path d="M84.1613 144.901L85.4965 149.513L85.601 149.874H85.9768H90.4476L86.7829 152.862L86.5266 153.071L86.6186 153.389L87.9885 158.12L84.4772 155.257L84.1613 155L83.8453 155.257L80.334 158.12L81.7039 153.389L81.7959 153.071L81.5396 152.862L77.875 149.874H82.3457H82.7215L82.826 149.513L84.1613 144.901Z" stroke="#867EFF" stroke-opacity="0.6"/>
<path d="M701.121 550.57C701.121 554.36 698.396 557.33 695.152 557.33C691.908 557.33 689.183 554.36 689.183 550.57C689.183 546.781 691.908 543.811 695.152 543.811C698.396 543.811 701.121 546.781 701.121 550.57Z" stroke="#867EFF" stroke-opacity="0.6"/>
<path d="M694.305 403.231L703.033 389.963L689.563 383.369L694.305 403.231Z" stroke="#867EFF" stroke-opacity="0.6"/>
<path d="M671.346 180.456C671.432 180.18 671.297 179.894 671.046 179.816L666.957 178.549C666.706 178.471 666.433 178.632 666.347 178.908C666.262 179.184 666.396 179.471 666.647 179.548L670.282 180.675L669.044 184.672C668.959 184.948 669.093 185.235 669.344 185.313C669.595 185.391 669.867 185.23 669.953 184.954L671.346 180.456ZM638.757 199.826L671.104 180.769L670.68 179.863L638.334 198.92L638.757 199.826Z" fill="#867EFF" fill-opacity="0.6"/>
<path d="M713.17 243.823L714.505 248.435L714.609 248.796H714.985H719.456L715.791 251.784L715.535 251.993L715.627 252.311L716.997 257.042L713.486 254.179L713.17 253.921L712.854 254.179L709.342 257.042L710.712 252.311L710.804 251.993L710.548 251.784L706.883 248.796H711.354H711.73L711.834 248.435L713.17 243.823Z" stroke="#867EFF" stroke-opacity="0.6"/>
<path d="M566.347 397.517C569.997 398.538 572.124 401.962 571.25 405.087C570.376 408.211 566.781 410.035 563.132 409.015C559.483 407.994 557.356 404.57 558.23 401.445C559.103 398.321 562.698 396.497 566.347 397.517Z" stroke="#867EFF" stroke-opacity="0.6"/>
<path d="M422.615 364.399L412.188 352.42L402.21 363.617L422.615 364.399Z" stroke="#867EFF" stroke-opacity="0.6"/>
<path d="M201.885 326.51C201.642 326.353 201.33 326.405 201.188 326.626L198.866 330.224C198.724 330.444 198.805 330.75 199.048 330.907C199.29 331.064 199.603 331.012 199.745 330.791L201.809 327.593L205.325 329.862C205.568 330.019 205.88 329.967 206.023 329.746C206.165 329.526 206.084 329.22 205.841 329.063L201.885 326.51ZM211.762 363.111L202.12 326.828L201.134 326.992L210.776 363.275L211.762 363.111Z" fill="#867EFF" fill-opacity="0.6"/>
<path d="M274.174 303.302L278.975 303.258L279.351 303.255L279.452 302.893L280.656 298.587L282.547 302.921L282.679 303.224L283.01 303.221L287.936 303.176L284.233 305.787L283.9 306.021L284.063 306.395L285.874 310.548L281.686 307.954L281.405 307.78L281.135 307.971L277.27 310.695L278.474 306.39L278.576 306.028L278.256 305.83L274.174 303.302Z" stroke="#867EFF" stroke-opacity="0.6"/>
<circle cx="167" cy="89" r="64" fill="url(#paint0_linear)"/>
<g clip-path="url(#clip0)">
<path d="M181.476 74.6074H152.608C150.624 74.6074 149 76.2312 149 78.2158V99.8662C149 101.851 150.624 103.475 152.608 103.475H181.476C183.46 103.475 185.084 101.851 185.084 99.8662V78.2158C185.084 76.2312 183.46 74.6074 181.476 74.6074ZM181.476 99.8662H177.867V83.9893L167.042 90.8452L156.217 83.9893V99.8662H152.608V78.2158H154.773L167.042 85.7934L179.311 78.2158H181.476V99.8662Z" fill="white"/>
</g>
<circle cx="533" cy="322" r="57" fill="url(#paint1_linear)"/>
<g clip-path="url(#clip1)">
<path d="M551.568 326.254C551.853 324.955 552.005 323.606 552.006 322.221C552.014 311.839 543.605 303.418 533.223 303.411C532.127 303.41 531.053 303.504 530.008 303.684C528.329 302.624 526.342 302.009 524.21 302.007C518.189 302.003 513.305 306.881 513.3 312.901C513.298 314.914 513.844 316.797 514.794 318.416C514.544 319.637 514.412 320.901 514.411 322.196C514.403 332.578 522.812 341 533.194 341.007C534.37 341.007 535.52 340.899 536.636 340.693C538.17 341.519 539.924 341.989 541.788 341.99C547.809 341.994 552.693 337.117 552.698 331.096C552.699 329.357 552.291 327.714 551.568 326.254ZM542.842 331.198C541.972 332.428 540.686 333.403 539.021 334.094C537.372 334.778 535.396 335.124 533.146 335.123C530.446 335.121 528.183 334.645 526.417 333.706C525.155 333.023 524.114 332.098 523.324 330.958C522.527 329.805 522.122 328.662 522.123 327.56C522.124 326.871 522.388 326.274 522.909 325.786C523.424 325.302 524.084 325.057 524.871 325.057C525.517 325.058 526.074 325.252 526.527 325.635C526.959 326.002 527.33 326.545 527.628 327.246C527.96 328.009 528.323 328.653 528.706 329.161C529.074 329.649 529.605 330.06 530.282 330.38C530.963 330.704 531.882 330.868 533.011 330.868C534.565 330.869 535.84 330.538 536.799 329.885C537.735 329.246 538.191 328.479 538.192 327.54C538.192 326.798 537.955 326.215 537.467 325.757C536.956 325.278 536.281 324.905 535.462 324.649C534.608 324.382 533.448 324.094 532.014 323.793C530.071 323.375 528.419 322.88 527.104 322.321C527.099 322.319 527.094 322.317 527.089 322.315C525.741 321.741 524.655 320.945 523.861 319.95C523.055 318.939 522.647 317.671 522.648 316.182C522.649 314.762 523.08 313.482 523.927 312.378C524.769 311.282 525.997 310.431 527.578 309.847C529.139 309.271 530.995 308.98 533.094 308.982C534.773 308.983 536.249 309.178 537.481 309.562C538.719 309.948 539.763 310.47 540.584 311.112C541.41 311.758 542.024 312.45 542.41 313.168C542.799 313.893 542.997 314.615 542.996 315.312C542.996 315.984 542.736 316.594 542.224 317.126C541.708 317.661 541.059 317.932 540.292 317.931C539.596 317.931 539.052 317.761 538.674 317.426C538.322 317.114 537.958 316.629 537.553 315.931C537.085 315.04 536.518 314.338 535.868 313.843C535.237 313.362 534.181 313.117 532.73 313.116C531.383 313.116 530.286 313.385 529.472 313.918C528.688 314.432 528.306 315.021 528.306 315.719C528.306 316.148 528.428 316.506 528.68 316.814C528.947 317.14 529.323 317.427 529.799 317.666C530.293 317.914 530.802 318.112 531.312 318.253C531.834 318.399 532.711 318.614 533.913 318.892C535.179 319.165 536.358 319.465 537.432 319.787C537.648 319.851 537.861 319.916 538.067 319.983C539.319 320.384 540.4 320.879 541.282 321.453C542.182 322.04 542.894 322.794 543.399 323.693C543.906 324.596 544.162 325.71 544.161 327.004C544.16 328.553 543.716 329.964 542.842 331.198Z" fill="white"/>
</g>
<circle cx="454" cy="47" r="47" fill="url(#paint2_linear)"/>
<path d="M462.429 34.4258C459.185 34.4266 456.227 35.6564 453.998 37.6763C451.768 35.659 448.812 34.4284 445.571 34.4284C445.544 34.4284 445.516 34.4284 445.49 34.4284C438.589 34.4735 433 40.0882 433 46.9994C433 53.9384 438.632 59.5696 445.57 59.5696C448.811 59.5696 451.767 58.3407 453.997 56.3217C453.531 55.9011 453.109 55.4353 452.711 54.9479H455.307C454.916 55.4275 454.489 55.8768 454.03 56.2948H454.029C454.018 56.3061 454.007 56.313 453.997 56.3225C456.228 58.3433 459.187 59.5748 462.433 59.5739C469.376 59.5713 475.002 53.941 475 46.9994C475 46.9968 475 46.9951 475 46.9934C475.001 40.0517 469.371 34.424 462.429 34.4258ZM452.855 38.9746H455.245C455.597 39.4013 455.924 39.8505 456.22 40.3206H451.958C452.233 39.8714 452.534 39.4091 452.855 38.9746ZM451.215 41.6406H456.945C457.149 42.0759 457.329 42.5261 457.487 42.9874H450.536C450.606 42.8574 450.848 42.3335 451.215 41.6406ZM438.132 50.2014L438.894 45.395L437.174 50.2014H436.252L436.133 45.395L435.318 50.2014H434.027L435.097 43.827H437.05L437.119 47.7383L438.438 43.827H440.556L439.501 50.2014H438.132ZM442.698 50.191L442.742 49.6819C442.721 49.6845 442.314 50.2968 441.369 50.2968C440.875 50.2968 440.077 50.0271 440.077 48.8545C440.077 47.3637 441.293 46.8693 442.451 46.8693C442.633 46.8693 443.026 46.9023 443.026 46.9023C443.026 46.9023 443.07 46.8112 443.07 46.5649C443.07 46.1599 442.706 46.1044 442.207 46.1044C441.328 46.1044 440.748 46.3394 440.748 46.3394L440.942 45.186C440.942 45.186 441.647 44.8911 442.563 44.8911C443.038 44.8911 444.402 44.9414 444.402 46.5051L443.876 50.191H442.698ZM447.678 48.5674C447.678 50.3462 445.955 50.2699 445.654 50.2699C444.531 50.2699 444.184 50.1146 444.152 50.106L444.331 48.9352C444.333 48.9248 444.895 49.139 445.52 49.139C445.881 49.139 446.349 49.1034 446.349 48.6724C446.349 48.0271 444.673 48.1815 444.673 46.649C444.673 45.297 445.678 44.9015 446.668 44.9015C447.433 44.9015 447.903 45.0064 447.903 45.0064L447.734 46.1877C447.734 46.1877 447.008 46.1278 446.82 46.1278C446.344 46.1278 446.084 46.2319 446.084 46.5649C446.084 47.2344 447.678 46.9066 447.678 48.5674ZM449.748 49.034C449.867 49.034 450.001 48.9933 450.093 48.9933L449.926 50.1303C449.791 50.1675 449.41 50.3028 448.922 50.3063C448.299 50.3115 447.855 49.9629 447.855 49.1719C447.855 48.6412 448.616 44.2675 448.645 44.2389H449.984L449.848 45.0212H450.515L450.344 46.2813H449.636L449.26 48.603C449.231 48.7877 449.282 49.034 449.748 49.034ZM452.691 44.8737C454.16 44.8737 454.6 45.9492 454.6 46.8312C454.6 47.1841 454.423 48.0514 454.423 48.0514H451.703C451.703 48.0514 451.452 49.1225 452.889 49.1225C453.563 49.1225 454.31 48.7929 454.31 48.7929L454.075 50.0826C454.075 50.0826 453.643 50.3028 452.661 50.3028C451.597 50.3028 450.349 49.8527 450.349 47.9621C450.35 46.3238 451.345 44.8737 452.691 44.8737ZM456.236 53.6531H451.776C451.505 53.2195 451.252 52.7746 451.034 52.3071H456.969C456.75 52.7719 456.506 53.2212 456.236 53.6531ZM455.937 50.2109H454.563L455.398 45.0229H456.644L456.525 45.7748C456.525 45.7748 456.969 44.957 457.568 44.957C457.742 44.957 457.826 44.9744 457.826 44.9744C457.649 45.3369 457.492 45.669 457.329 46.5268C456.399 46.1972 456.328 47.995 455.937 50.2109ZM461.171 50.1303C461.171 50.1303 460.451 50.3141 460 50.3141C458.402 50.3141 457.591 49.2118 457.591 47.5423C457.591 45.0247 459.094 43.6839 460.639 43.6839C461.337 43.6839 462.146 44.0117 462.146 44.0117L461.928 45.4297C461.928 45.4297 461.38 45.0472 460.7 45.0472C459.789 45.0472 458.972 45.9162 458.972 47.4955C458.972 48.2734 459.353 48.9985 460.303 48.9985C460.755 48.9985 461.41 48.6698 461.41 48.6698L461.171 50.1303ZM464.392 50.1936L464.438 49.681C464.416 49.6836 464.008 50.2959 463.065 50.2959C462.57 50.2959 461.772 50.0262 461.772 48.8536C461.772 47.3628 462.988 46.8685 464.145 46.8685C464.327 46.8685 464.721 46.9014 464.721 46.9014C464.721 46.9014 464.766 46.8112 464.766 46.5649C464.766 46.1599 464.402 46.1044 463.902 46.1044C463.024 46.1044 462.445 46.3394 462.445 46.3394L462.639 45.186C462.639 45.186 463.343 44.8911 464.261 44.8911C464.734 44.8911 466.099 44.9414 466.098 46.5051L465.573 50.191C465.572 50.1936 464.392 50.1936 464.392 50.1936ZM467.174 50.2109H465.8L466.635 45.0229H467.882L467.763 45.7748C467.763 45.7748 468.208 44.957 468.807 44.957C468.981 44.957 469.064 44.9744 469.064 44.9744C468.888 45.3369 468.729 45.669 468.567 46.5268C467.636 46.1972 467.565 47.995 467.174 50.2109ZM471.275 50.197L471.333 49.7192C471.333 49.7192 470.889 50.2794 470.086 50.2794C468.973 50.2794 468.428 49.2049 468.428 48.1069C468.428 46.4088 469.449 44.9284 470.676 44.9284C471.465 44.9301 471.969 45.6265 471.969 45.6265L472.259 43.8356L473.6 43.833L472.577 50.197H471.275ZM473.922 50.0175C473.886 50.0817 473.836 50.1311 473.772 50.1693C473.709 50.2048 473.641 50.2231 473.57 50.2231C473.5 50.2231 473.434 50.2048 473.37 50.1693C473.305 50.1311 473.255 50.0817 473.219 50.0175C473.183 49.9525 473.166 49.8866 473.166 49.8163C473.166 49.7452 473.184 49.6775 473.219 49.6134C473.255 49.5492 473.308 49.4972 473.371 49.4625C473.437 49.4269 473.502 49.4087 473.57 49.4087C473.639 49.4087 473.705 49.4269 473.769 49.4625C473.835 49.498 473.886 49.5475 473.922 49.6134C473.959 49.6784 473.976 49.7461 473.976 49.8163C473.976 49.8866 473.958 49.9533 473.922 50.0175Z" fill="white"/>
<path d="M473.815 53.8529C473.806 53.8468 473.798 53.8372 473.784 53.832C473.771 53.8268 473.749 53.8242 473.715 53.8242H473.633V53.9545H473.72C473.761 53.9545 473.788 53.951 473.804 53.9363C473.818 53.9241 473.825 53.9093 473.825 53.8885C473.825 53.8746 473.822 53.865 473.815 53.8529Z" fill="white"/>
<path d="M474.094 53.7769C474.057 53.7093 474.006 53.6616 473.941 53.626C473.876 53.5905 473.81 53.5723 473.742 53.5723C473.673 53.5723 473.607 53.5905 473.543 53.626C473.479 53.6616 473.426 53.711 473.39 53.7769C473.353 53.8411 473.336 53.9088 473.336 53.9781C473.336 54.0475 473.355 54.116 473.39 54.1794C473.427 54.2435 473.478 54.2956 473.541 54.3311C473.605 54.3667 473.673 54.3849 473.744 54.3849C473.813 54.3849 473.881 54.3667 473.944 54.3311C474.008 54.2956 474.059 54.2435 474.094 54.1794C474.131 54.116 474.148 54.0484 474.148 53.9781C474.148 53.9079 474.13 53.8403 474.094 53.7769ZM473.845 54.2036L473.806 54.1351C473.776 54.0814 473.751 54.0458 473.732 54.0319C473.72 54.0232 473.701 54.0163 473.676 54.0163H473.636V54.2028H473.565V53.7648H473.715C473.767 53.7648 473.805 53.7691 473.826 53.7778C473.849 53.7865 473.869 53.7986 473.881 53.8203C473.895 53.8403 473.901 53.8619 473.901 53.8845C473.901 53.9166 473.889 53.9435 473.867 53.9686C473.845 53.9912 473.813 54.0059 473.776 54.0085C473.792 54.0137 473.804 54.0224 473.813 54.0319C473.832 54.0493 473.852 54.0779 473.878 54.1178L473.932 54.2036H473.845Z" fill="white"/>
<path d="M442.559 47.8652C441.578 47.8652 441.38 48.3058 441.38 48.6727C441.38 48.8617 441.488 49.1774 441.904 49.1774C442.709 49.1774 442.877 48.1211 442.851 47.8965C442.813 47.8886 442.788 47.8661 442.559 47.8652Z" fill="white"/>
<path d="M452.697 46.0723C451.967 46.0723 451.827 46.9022 451.827 46.9898H453.312C453.312 46.9231 453.452 46.0723 452.697 46.0723Z" fill="white"/>
<path d="M470.907 46.2168C470.318 46.2168 469.853 46.9002 469.854 47.9383C469.854 48.5714 470.079 48.9773 470.561 48.9773C471.286 48.9773 471.636 48.0311 471.636 47.326C471.636 46.5481 471.389 46.2168 470.907 46.2168Z" fill="white"/>
<path d="M473.861 49.6494C473.831 49.5956 473.788 49.554 473.734 49.5236C473.681 49.4933 473.626 49.4785 473.569 49.4785C473.513 49.4785 473.457 49.4941 473.403 49.5236C473.349 49.5514 473.307 49.5947 473.276 49.6494C473.246 49.704 473.23 49.7621 473.23 49.8185C473.23 49.8766 473.246 49.9338 473.275 49.9867C473.307 50.0405 473.348 50.0813 473.401 50.1134C473.455 50.1428 473.511 50.1602 473.569 50.1602C473.627 50.1602 473.684 50.1428 473.736 50.1134C473.79 50.083 473.831 50.0414 473.863 49.9867C473.893 49.933 473.907 49.8766 473.907 49.8185C473.907 49.7612 473.891 49.704 473.861 49.6494ZM473.673 50.0414L473.634 49.9737C473.603 49.9191 473.579 49.8844 473.561 49.8714C473.546 49.8601 473.529 49.8549 473.504 49.8549H473.464V50.0405H473.391V49.6034H473.543C473.594 49.6034 473.632 49.6077 473.654 49.6173C473.675 49.6251 473.694 49.6398 473.709 49.6589C473.724 49.678 473.729 49.6997 473.729 49.7231C473.729 49.7552 473.717 49.7821 473.694 49.8063C473.672 49.8315 473.641 49.8419 473.604 49.8462C473.622 49.8532 473.633 49.861 473.642 49.8688C473.66 49.887 473.681 49.913 473.706 49.9546L473.76 50.0414H473.673Z" fill="white"/>
<path d="M464.255 47.8652C463.274 47.8652 463.076 48.3058 463.076 48.6727C463.076 48.8617 463.183 49.1774 463.6 49.1774C464.405 49.1774 464.572 48.1211 464.547 47.8965C464.508 47.8886 464.483 47.8661 464.255 47.8652Z" fill="white"/>
<path d="M473.644 49.6925C473.637 49.6838 473.628 49.6769 473.615 49.6708C473.6 49.6665 473.578 49.6621 473.543 49.6621V49.663H473.464V49.795H473.55C473.591 49.795 473.618 49.7898 473.635 49.7768C473.648 49.7637 473.655 49.7472 473.655 49.7281C473.655 49.7134 473.652 49.7047 473.644 49.6925Z" fill="white"/>
<circle cx="340" cy="236" r="47" fill="url(#paint3_linear)"/>
<g clip-path="url(#clip2)">
<path d="M355.145 224.589C355.747 225.722 356.046 227.127 356.046 228.812C356.046 232.641 354.432 235.728 351.21 238.073C347.985 240.42 343.481 241.591 337.694 241.591H336.339C335.319 241.591 334.302 242.391 334.073 243.367L332.446 250.302C332.219 251.283 331.2 252.083 330.182 252.083H327.219L326.954 253.216C326.724 254.199 327.37 255 328.387 255H333.135C334.154 255 335.174 254.199 335.399 253.218L337.027 246.284C337.257 245.307 338.274 244.507 339.293 244.507H340.648C346.435 244.507 350.939 243.337 354.163 240.989C357.387 238.644 359 235.557 359 231.728C359 230.044 358.701 228.638 358.099 227.505C357.5 226.38 356.628 225.46 355.492 224.758C355.37 224.685 355.271 224.658 355.145 224.589ZM329.492 247.386L331.119 240.451C331.349 239.475 332.365 238.674 333.385 238.674H334.739C340.528 238.674 345.031 237.504 348.256 235.157C351.479 232.812 353.092 229.725 353.092 225.896C353.092 224.212 352.793 222.806 352.191 221.673C351.592 220.548 350.719 219.628 349.584 218.927C348.42 218.215 347.052 217.721 345.468 217.431C343.88 217.144 342.022 217 339.887 217H330C328.979 217 327.962 217.796 327.73 218.777L321.047 247.386C320.817 248.367 321.462 249.167 322.48 249.167H327.228C328.245 249.167 329.266 248.366 329.492 247.386ZM333.369 230.786L334.796 224.713C335.027 223.736 336.046 222.936 337.06 222.936H338.615C340.426 222.936 341.799 223.24 342.72 223.847C343.64 224.448 344.102 225.374 344.102 226.629C344.102 228.529 343.384 229.995 341.959 231.024C340.532 232.05 338.548 232.57 335.985 232.57H334.809C333.789 232.57 333.145 231.766 333.369 230.786Z" fill="white"/>
</g>
<circle cx="351" cy="468" r="47" fill="url(#paint4_linear)"/>
<g clip-path="url(#clip3)">
<path d="M362.98 456.885H339.887C338.299 456.885 337 458.184 337 459.771V477.092C337 478.679 338.299 479.978 339.887 479.978H362.98C364.568 479.978 365.867 478.679 365.867 477.092V459.771C365.867 458.184 364.568 456.885 362.98 456.885ZM362.98 477.092H360.094V464.39L351.434 469.875L342.773 464.39V477.092H339.887V459.771H341.619L351.434 465.834L361.248 459.771H362.98V477.092Z" fill="white"/>
</g>
<circle cx="207" cy="568" r="40" fill="url(#paint5_linear)"/>
<g clip-path="url(#clip4)">
<path d="M218.16 559.592C218.603 560.427 218.824 561.462 218.824 562.704C218.824 565.525 217.635 567.8 215.26 569.527C212.884 571.257 209.565 572.119 205.301 572.119H204.302C203.551 572.119 202.802 572.709 202.633 573.429L201.434 578.538C201.267 579.261 200.516 579.851 199.766 579.851H197.583L197.387 580.686C197.218 581.41 197.694 582 198.443 582H201.942C202.692 582 203.444 581.41 203.61 580.687L204.809 575.577C204.979 574.858 205.728 574.268 206.479 574.268H207.477C211.742 574.268 215.06 573.406 217.436 571.676C219.811 569.948 221 567.674 221 564.852C221 563.611 220.78 562.576 220.336 561.741C219.895 560.911 219.252 560.234 218.415 559.716C218.325 559.663 218.253 559.643 218.16 559.592ZM199.257 576.39L200.456 571.28C200.626 570.561 201.375 569.971 202.126 569.971H203.124C207.389 569.971 210.708 569.108 213.083 567.379C215.458 565.651 216.647 563.376 216.647 560.555C216.647 559.314 216.427 558.278 215.983 557.443C215.542 556.614 214.899 555.936 214.062 555.42C213.204 554.895 212.196 554.531 211.03 554.318C209.859 554.106 208.49 554 206.917 554H199.632C198.879 554 198.13 554.586 197.959 555.309L193.035 576.389C192.865 577.112 193.341 577.702 194.09 577.702H197.589C198.339 577.702 199.091 577.112 199.257 576.39ZM202.114 564.158L203.166 559.684C203.336 558.963 204.087 558.374 204.834 558.374H205.979C207.314 558.374 208.326 558.598 209.004 559.045C209.682 559.488 210.023 560.17 210.023 561.095C210.023 562.495 209.493 563.575 208.443 564.333C207.392 565.09 205.93 565.473 204.042 565.473H203.175C202.424 565.473 201.949 564.88 202.114 564.158Z" fill="white"/>
</g>
<circle cx="76" cy="309" r="40" fill="url(#paint6_linear)"/>
<path d="M84.0276 297.025C80.9376 297.026 78.1211 298.197 75.9983 300.121C73.874 298.2 71.0591 297.028 67.9724 297.028C67.9468 297.028 67.9204 297.028 67.8956 297.028C61.3225 297.071 56 302.418 56 309C56 315.609 61.3638 320.972 67.9716 320.972C71.0582 320.972 73.8731 319.801 75.9967 317.879C75.5532 317.478 75.1517 317.034 74.7726 316.57H77.2447C76.8722 317.027 76.4658 317.455 76.0289 317.853H76.0273C76.0173 317.864 76.0066 317.87 75.9967 317.879C78.1219 319.804 80.9401 320.977 84.0317 320.976C90.6436 320.974 96.0017 315.611 96 309C96 308.998 96 308.996 96 308.995C96.0008 302.383 90.6395 297.024 84.0276 297.025ZM74.9097 301.358H77.1853C77.5206 301.764 77.832 302.192 78.1145 302.64H74.0548C74.3167 302.212 74.6041 301.771 74.9097 301.358ZM73.3478 303.897H78.805C78.9991 304.311 79.1709 304.74 79.3212 305.179H72.7011C72.7672 305.055 72.9984 304.557 73.3478 303.897ZM60.8873 312.05L61.6133 307.472L59.9754 312.05H59.0974L58.9834 307.472L58.2078 312.05H56.9779L57.9972 305.979H59.8573L59.9225 309.704L61.1788 305.979H63.1967L62.1915 312.05H60.8873ZM65.236 312.04L65.2781 311.555C65.2583 311.557 64.8701 312.141 63.9706 312.141C63.4998 312.141 62.7399 311.884 62.7399 310.767C62.7399 309.347 63.8979 308.876 65.0006 308.876C65.174 308.876 65.5482 308.908 65.5482 308.908C65.5482 308.908 65.5903 308.821 65.5903 308.586C65.5903 308.201 65.2434 308.148 64.7685 308.148C63.9318 308.148 63.3792 308.372 63.3792 308.372L63.5642 307.273C63.5642 307.273 64.2349 306.992 65.108 306.992C65.5598 306.992 66.859 307.04 66.859 308.529L66.3585 312.04H65.236ZM69.9795 310.494C69.9795 312.188 68.3383 312.115 68.0517 312.115C66.9821 312.115 66.6517 311.967 66.6211 311.959L66.7913 310.844C66.7929 310.834 67.3282 311.038 67.9237 311.038C68.2673 311.038 68.7133 311.004 68.7133 310.594C68.7133 309.979 67.1175 310.126 67.1175 308.667C67.1175 307.379 68.074 307.002 69.0173 307.002C69.7458 307.002 70.1934 307.102 70.1934 307.102L70.0324 308.227C70.0324 308.227 69.341 308.17 69.1618 308.17C68.7084 308.17 68.4614 308.269 68.4614 308.586C68.4606 309.224 69.9795 308.912 69.9795 310.494ZM71.9503 310.938C72.0634 310.938 72.1915 310.899 72.279 310.899L72.1196 311.982C71.9916 312.018 71.629 312.146 71.164 312.15C70.5701 312.155 70.148 311.823 70.148 311.069C70.148 310.564 70.8724 306.398 70.9005 306.371H72.1749L72.0453 307.116H72.6813L72.5185 308.316H71.8437L71.4853 310.528C71.458 310.703 71.5067 310.938 71.9503 310.938ZM74.7536 306.976C76.1528 306.976 76.5716 308 76.5716 308.84C76.5716 309.176 76.4031 310.002 76.4031 310.002H73.8128C73.8128 310.002 73.5733 311.022 74.9419 311.022C75.5837 311.022 76.2957 310.708 76.2957 310.708L76.071 311.937C76.071 311.937 75.6597 312.146 74.7247 312.146C73.7112 312.146 72.5227 311.718 72.5227 309.917C72.5235 308.357 73.4717 306.976 74.7536 306.976ZM78.1293 315.337H73.8822C73.6237 314.924 73.3825 314.5 73.1752 314.055H78.8273C78.6191 314.498 78.3862 314.926 78.1293 315.337ZM77.8444 312.059H76.5361L77.3315 307.118H78.5184L78.4044 307.834C78.4044 307.834 78.8273 307.055 79.398 307.055C79.5641 307.055 79.6442 307.072 79.6442 307.072C79.4748 307.417 79.3253 307.733 79.1701 308.55C78.2846 308.236 78.2169 309.948 77.8444 312.059ZM82.8291 311.982C82.8291 311.982 82.1436 312.157 81.7141 312.157C80.1926 312.157 79.4203 311.107 79.4203 309.517C79.4203 307.12 80.8517 305.843 82.3228 305.843C82.9877 305.843 83.7583 306.155 83.7583 306.155L83.5502 307.505C83.5502 307.505 83.029 307.141 82.3806 307.141C81.5133 307.141 80.7353 307.969 80.7353 309.473C80.7353 310.214 81.0979 310.904 82.0031 310.904C82.4335 310.904 83.0571 310.591 83.0571 310.591L82.8291 311.982ZM85.8976 312.042L85.9405 311.554C85.9199 311.557 85.5317 312.14 84.633 312.14C84.1622 312.14 83.4023 311.883 83.4023 310.766C83.4023 309.346 84.5603 308.876 85.6622 308.876C85.8356 308.876 86.2106 308.907 86.2106 308.907C86.2106 308.907 86.2536 308.821 86.2536 308.586C86.2536 308.201 85.9067 308.148 85.4309 308.148C84.5942 308.148 84.0425 308.372 84.0425 308.372L84.2275 307.273C84.2275 307.273 84.8982 306.992 85.772 306.992C86.223 306.992 87.5231 307.04 87.5223 308.529L87.0217 312.04C87.0209 312.042 85.8976 312.042 85.8976 312.042ZM88.5465 312.059H87.2381L88.0335 307.118H89.2213L89.1073 307.834C89.1073 307.834 89.531 307.055 90.1018 307.055C90.2678 307.055 90.3471 307.072 90.3471 307.072C90.1786 307.417 90.0274 307.733 89.873 308.55C88.9867 308.236 88.919 309.948 88.5465 312.059ZM92.4525 312.046L92.5078 311.591C92.5078 311.591 92.0849 312.124 91.3201 312.124C90.2603 312.124 89.7408 311.101 89.7408 310.055C89.7408 308.438 90.7138 307.028 91.8817 307.028C92.6334 307.03 93.1132 307.693 93.1132 307.693L93.3891 305.987L94.6669 305.985L93.6922 312.046H92.4525ZM94.9733 311.875C94.9395 311.936 94.8916 311.983 94.8304 312.019C94.7701 312.053 94.7057 312.07 94.638 312.07C94.5719 312.07 94.5083 312.053 94.4472 312.019C94.3861 311.983 94.3382 311.936 94.3043 311.875C94.2696 311.813 94.2531 311.75 94.2531 311.683C94.2531 311.615 94.2704 311.551 94.3043 311.49C94.3382 311.429 94.3885 311.379 94.4488 311.346C94.5116 311.312 94.5736 311.295 94.638 311.295C94.7041 311.295 94.7668 311.312 94.8279 311.346C94.8907 311.38 94.9386 311.427 94.9733 311.49C95.0088 311.552 95.0245 311.616 95.0245 311.683C95.0245 311.75 95.008 311.814 94.9733 311.875Z" fill="white"/>
<path d="M94.8711 315.527C94.8629 315.522 94.8554 315.512 94.8422 315.507C94.829 315.502 94.8083 315.5 94.776 315.5H94.6982V315.624H94.781C94.8199 315.624 94.8455 315.621 94.8604 315.607C94.8745 315.595 94.8811 315.581 94.8811 315.561C94.8811 315.548 94.8778 315.539 94.8711 315.527Z" fill="white"/>
<path d="M95.1379 315.455C95.1024 315.39 95.0537 315.345 94.9917 315.311C94.9298 315.277 94.867 315.26 94.8026 315.26C94.7365 315.26 94.6737 315.277 94.6126 315.311C94.5515 315.345 94.5011 315.392 94.4672 315.455C94.4317 315.516 94.416 315.58 94.416 315.646C94.416 315.712 94.4334 315.778 94.4672 315.838C94.5027 315.899 94.5506 315.949 94.6109 315.982C94.6721 316.016 94.7365 316.034 94.8042 316.034C94.8703 316.034 94.9347 316.016 94.995 315.982C95.0553 315.949 95.104 315.899 95.1379 315.838C95.1726 315.778 95.1891 315.713 95.1891 315.646C95.1891 315.579 95.1718 315.515 95.1379 315.455ZM94.9 315.861L94.8637 315.796C94.8348 315.745 94.8108 315.711 94.7927 315.698C94.7811 315.689 94.7629 315.683 94.7398 315.683H94.701V315.86H94.6332V315.443H94.777C94.8265 315.443 94.862 315.447 94.8819 315.456C94.9042 315.464 94.9232 315.475 94.9347 315.496C94.9479 315.515 94.9537 315.536 94.9537 315.557C94.9537 315.588 94.9422 315.613 94.9215 315.637C94.9 315.659 94.8703 315.673 94.8348 315.675C94.8496 315.68 94.8612 315.688 94.8703 315.698C94.8876 315.714 94.9075 315.741 94.9322 315.779L94.9835 315.861H94.9Z" fill="white"/>
<path d="M65.1038 309.824C64.1696 309.824 63.9805 310.244 63.9805 310.593C63.9805 310.773 64.0837 311.074 64.4794 311.074C65.2467 311.074 65.4061 310.068 65.3813 309.854C65.345 309.847 65.3218 309.825 65.1038 309.824Z" fill="white"/>
<path d="M74.7586 308.117C74.064 308.117 73.9302 308.908 73.9302 308.991H75.3451C75.3451 308.927 75.478 308.117 74.7586 308.117Z" fill="white"/>
<path d="M92.1022 308.254C91.5414 308.254 91.0978 308.905 91.0986 309.893C91.0986 310.496 91.3134 310.883 91.7726 310.883C92.4631 310.883 92.796 309.982 92.796 309.31C92.796 308.569 92.5606 308.254 92.1022 308.254Z" fill="white"/>
<path d="M94.9154 311.524C94.8865 311.473 94.846 311.433 94.7948 311.404C94.7436 311.375 94.6916 311.361 94.6371 311.361C94.5842 311.361 94.5305 311.376 94.4793 311.404C94.4281 311.431 94.3876 311.472 94.3587 311.524C94.3298 311.576 94.3149 311.631 94.3149 311.685C94.3149 311.74 94.3298 311.795 94.3571 311.845C94.3876 311.897 94.4264 311.935 94.4777 311.966C94.5289 311.994 94.5817 312.011 94.6371 312.011C94.6924 312.011 94.7469 311.994 94.7965 311.966C94.8477 311.937 94.8873 311.897 94.9171 311.845C94.946 311.794 94.9592 311.74 94.9592 311.685C94.9592 311.631 94.9443 311.576 94.9154 311.524ZM94.7362 311.897L94.699 311.833C94.6701 311.781 94.647 311.748 94.6296 311.735C94.6156 311.725 94.5991 311.72 94.5751 311.72H94.5371V311.897H94.4677V311.48H94.6123C94.661 311.48 94.6974 311.484 94.718 311.493C94.7387 311.501 94.7568 311.515 94.7709 311.533C94.7849 311.551 94.7899 311.572 94.7899 311.594C94.7899 311.625 94.7783 311.65 94.7568 311.674C94.7354 311.697 94.7056 311.707 94.6709 311.712C94.6875 311.718 94.6982 311.726 94.7065 311.733C94.7238 311.75 94.7436 311.775 94.7676 311.815L94.8188 311.897H94.7362Z" fill="white"/>
<path d="M85.7669 309.824C84.8327 309.824 84.6436 310.244 84.6436 310.593C84.6436 310.773 84.746 311.074 85.1424 311.074C85.9098 311.074 86.0684 310.068 86.0444 309.854C86.0072 309.847 85.9841 309.825 85.7669 309.824Z" fill="white"/>
<path d="M94.7084 311.564C94.7017 311.556 94.6926 311.549 94.6802 311.543C94.6662 311.539 94.6455 311.535 94.6124 311.535V311.536H94.5371V311.662H94.619C94.6579 311.662 94.6835 311.657 94.6993 311.644C94.7117 311.632 94.7191 311.616 94.7191 311.598C94.7191 311.584 94.7158 311.576 94.7084 311.564Z" fill="white"/>
<circle cx="515" cy="545" r="30" fill="url(#paint7_linear)"/>
<g clip-path="url(#clip5)">
<path d="M524.289 547.14C524.431 546.49 524.507 545.815 524.507 545.123C524.509 539.932 520.303 535.719 515.112 535.712C514.564 535.711 514.027 535.758 513.504 535.847C512.665 535.317 511.671 535.009 510.605 535.007C507.595 535.003 505.153 537.441 505.152 540.451C505.152 541.457 505.425 542.399 505.9 543.209C505.775 543.819 505.71 544.451 505.709 545.099C505.707 550.289 509.914 554.503 515.105 554.51C515.693 554.511 516.268 554.457 516.826 554.354C517.593 554.768 518.47 555.003 519.402 555.005C522.412 555.008 524.854 552.571 524.855 549.561C524.855 548.691 524.651 547.87 524.289 547.14ZM519.927 549.609C519.492 550.224 518.849 550.71 518.017 551.055C517.192 551.397 516.204 551.569 515.079 551.568C513.73 551.566 512.598 551.327 511.715 550.857C511.083 550.515 510.563 550.053 510.168 549.482C509.769 548.906 509.566 548.334 509.567 547.783C509.567 547.439 509.699 547.14 509.959 546.896C510.217 546.654 510.547 546.532 510.94 546.532C511.263 546.533 511.542 546.63 511.768 546.822C511.984 547.005 512.17 547.277 512.319 547.628C512.485 548.009 512.667 548.332 512.858 548.586C513.043 548.83 513.308 549.035 513.646 549.196C513.987 549.358 514.446 549.44 515.011 549.441C515.788 549.442 516.425 549.277 516.905 548.95C517.373 548.631 517.601 548.248 517.601 547.778C517.601 547.407 517.482 547.115 517.238 546.886C516.982 546.647 516.645 546.46 516.235 546.332C515.808 546.198 515.228 546.054 514.511 545.902C513.54 545.693 512.714 545.445 512.056 545.165C512.053 545.164 512.051 545.163 512.048 545.162C511.374 544.874 510.831 544.476 510.434 543.978C510.031 543.473 509.827 542.839 509.827 542.094C509.827 541.384 510.042 540.744 510.466 540.193C510.886 539.645 511.5 539.22 512.291 538.928C513.071 538.641 513.999 538.496 515.049 538.497C515.888 538.498 516.626 538.596 517.242 538.789C517.861 538.982 518.383 539.244 518.794 539.565C519.207 539.888 519.514 540.234 519.707 540.593C519.902 540.956 520.001 541.317 520.001 541.666C520 542.002 519.871 542.307 519.615 542.572C519.357 542.84 519.032 542.975 518.649 542.975C518.301 542.974 518.029 542.889 517.84 542.721C517.664 542.565 517.482 542.323 517.279 541.974C517.045 541.528 516.762 541.177 516.436 540.929C516.121 540.688 515.593 540.566 514.867 540.565C514.193 540.564 513.645 540.698 513.239 540.964C512.846 541.221 512.656 541.515 512.656 541.865C512.656 542.079 512.717 542.258 512.843 542.412C512.976 542.575 513.165 542.719 513.403 542.838C513.65 542.963 513.904 543.062 514.159 543.133C514.42 543.205 514.859 543.313 515.46 543.453C516.093 543.59 516.683 543.74 517.219 543.901C517.327 543.934 517.434 543.966 517.537 543.999C518.163 544.201 518.704 544.448 519.145 544.736C519.595 545.03 519.951 545.407 520.204 545.856C520.457 546.308 520.586 546.865 520.585 547.512C520.585 548.286 520.363 548.992 519.927 549.609Z" fill="white"/>
</g>
<defs>
<linearGradient id="paint0_linear" x1="129" y1="25" x2="198" y2="153" gradientUnits="userSpaceOnUse">
<stop stop-color="#5AC5FB"/>
<stop offset="1" stop-color="#0071DC"/>
</linearGradient>
<linearGradient id="paint1_linear" x1="533" y1="265" x2="533" y2="379" gradientUnits="userSpaceOnUse">
<stop stop-color="#FF9667"/>
<stop offset="1" stop-color="#EF530D"/>
</linearGradient>
<linearGradient id="paint2_linear" x1="454" y1="0" x2="454" y2="94" gradientUnits="userSpaceOnUse">
<stop stop-color="#FFAEBC"/>
<stop offset="1" stop-color="#FE2771"/>
</linearGradient>
<linearGradient id="paint3_linear" x1="340" y1="189" x2="340" y2="283" gradientUnits="userSpaceOnUse">
<stop stop-color="#A7E11D"/>
<stop offset="1" stop-color="#2FB937"/>
</linearGradient>
<linearGradient id="paint4_linear" x1="351" y1="421" x2="351" y2="515" gradientUnits="userSpaceOnUse">
<stop stop-color="#C37AFF"/>
<stop offset="1" stop-color="#7B0AD6"/>
</linearGradient>
<linearGradient id="paint5_linear" x1="207" y1="528" x2="207" y2="608" gradientUnits="userSpaceOnUse">
<stop stop-color="#84D6FF"/>
<stop offset="1" stop-color="#1CA8EE"/>
</linearGradient>
<linearGradient id="paint6_linear" x1="65" y1="269" x2="76" y2="349" gradientUnits="userSpaceOnUse">
<stop stop-color="#F7C100"/>
<stop offset="1" stop-color="#F18900"/>
</linearGradient>
<linearGradient id="paint7_linear" x1="515" y1="515" x2="515" y2="575" gradientUnits="userSpaceOnUse">
<stop stop-color="#8AFFD1"/>
<stop offset="1" stop-color="#0CBD78"/>
</linearGradient>
<clipPath id="clip0">
<rect width="36.084" height="36.084" fill="white" transform="matrix(-1 0 0 1 185.084 71)"/>
</clipPath>
<clipPath id="clip1">
<rect width="40" height="40" fill="white" transform="matrix(-1 0 0 1 553 302)"/>
</clipPath>
<clipPath id="clip2">
<rect width="38" height="38" fill="white" transform="translate(321 217)"/>
</clipPath>
<clipPath id="clip3">
<rect width="28.8672" height="28.8672" fill="white" transform="matrix(-1 0 0 1 365.867 454)"/>
</clipPath>
<clipPath id="clip4">
<rect width="28" height="28" fill="white" transform="translate(193 554)"/>
</clipPath>
<clipPath id="clip5">
<rect width="20" height="20" fill="white" transform="matrix(-1 0 0 1 525 535)"/>
</clipPath>
</defs>
</svg>
