<svg width="30" height="31" viewBox="0 0 30 31" fill="none" xmlns="http://www.w3.org/2000/svg">
<path d="M15 0.755859C6.7099 0.755859 0 7.40139 0 15.6145C0 23.8265 6.70876 30.4731 15 30.4731C23.2899 30.4731 30 23.8274 30 15.6145C30 7.40252 23.2912 0.755859 15 0.755859ZM15 28.6709C7.73232 28.6709 1.81938 22.8137 1.81938 15.6145C1.81938 8.41507 7.73232 2.55809 15 2.55809C22.2677 2.55809 28.1806 8.41507 28.1806 15.6145C28.1806 22.8137 22.2677 28.6709 15 28.6709Z" fill="white"/>
<path d="M25.62 17.1091C25.1302 16.998 24.6422 17.3012 24.53 17.7863C23.5069 22.2095 19.588 25.2986 15.0001 25.2986C10.4121 25.2986 6.49321 22.2093 5.47011 17.7863C5.35773 17.3012 4.87021 16.998 4.38017 17.1091C3.89036 17.2202 3.58435 17.7036 3.6965 18.1888C4.88714 23.3354 9.54009 27.1009 15.0001 27.1009C20.4591 27.1009 25.1128 23.3359 26.3034 18.1888C26.4158 17.7036 26.1098 17.2204 25.62 17.1091Z" fill="white"/>
<path d="M4.58415 14.1426C4.99888 14.1426 5.37356 13.8599 5.47015 13.4425C6.49349 9.01929 10.4122 5.93017 15.0001 5.93017C19.5881 5.93017 23.507 9.01952 24.5301 13.4425C24.6425 13.9277 25.1307 14.2308 25.6201 14.1197C26.1099 14.0086 26.4159 13.5252 26.3037 13.04C25.1133 7.89406 20.4608 4.12793 15.0001 4.12793C9.54106 4.12793 4.88742 7.8927 3.69677 13.04C3.56585 13.605 4.00027 14.1426 4.58415 14.1426Z" fill="white"/>
<path d="M14.8258 23.0638C15.3282 23.0638 15.7357 22.6605 15.7357 22.1628V20.8811H16.4836C18.2003 20.8811 19.5967 19.4976 19.5967 17.7972C19.5967 16.7026 19.0176 15.7401 18.1472 15.1926C18.4994 14.6929 18.7068 14.0862 18.7068 13.4319C18.7068 11.7786 17.3864 10.4255 15.7357 10.3516V9.06629C15.7357 8.56863 15.3282 8.16528 14.8258 8.16528C14.3235 8.16528 13.9163 8.56863 13.9163 9.06629V10.348H12.1781C11.6757 10.348 11.2686 10.7515 11.2686 11.2492C11.2686 11.7344 11.2686 19.4947 11.2686 19.9799C11.2686 20.4776 11.6757 20.8811 12.1781 20.8811H13.9163V22.1628C13.9163 22.6605 14.3235 23.0638 14.8258 23.0638ZM13.0879 12.1502H15.5935C16.3069 12.1502 16.8874 12.7252 16.8874 13.4319C16.8874 14.1386 16.3069 14.7133 15.5935 14.7133H13.0879V12.1502ZM13.0879 16.5155C13.5402 16.5155 16.12 16.5155 16.4836 16.5155C17.1971 16.5155 17.7773 17.0905 17.7773 17.7972C17.7773 18.5039 17.1971 19.0789 16.4836 19.0789H13.0879V16.5155Z" fill="white"/>
</svg>
