<svg width="42" height="30" viewBox="0 0 42 30" fill="none" xmlns="http://www.w3.org/2000/svg">
<path d="M41.9415 16.4259C41.7909 15.3387 40.6702 14.4689 38.5711 13.8333C36.8734 13.3231 34.724 13.0137 32.3823 12.9635V4.03998C32.3823 3.85599 32.3238 3.68037 32.2067 3.53819C31.9307 2.56806 30.81 1.78192 28.8698 1.1965C26.9881 0.627798 24.5293 0.318359 21.945 0.318359C19.3692 0.318359 16.9355 0.627798 15.0956 1.1965C13.5818 1.66483 11.767 2.53461 11.767 4.03162C11.767 4.12362 11.7754 4.21561 11.7921 4.30761L11.8841 8.12123C6.45639 7.07583 1.21266 10.6469 0.175627 16.083C0.0585424 16.6935 0 17.3207 0 17.948C0 23.4677 4.49104 27.9587 10.0108 27.9587C12.3106 27.9587 14.5352 27.1642 16.325 25.7174C17.8973 26.0854 19.7372 26.2861 21.6858 26.3028C22.1123 28.6194 27.1302 29.6816 31.8136 29.6816C34.3895 29.6816 36.8148 29.3638 38.6714 28.7867C40.1935 28.3184 42 27.4402 42 25.9432V16.7521C42 16.6433 41.9833 16.5262 41.9415 16.4259ZM15.5974 2.79387C17.2867 2.27535 19.5448 1.98264 21.9534 1.98264C24.3453 1.98264 26.687 2.27535 28.3931 2.79387C30.2079 3.34584 30.601 3.91454 30.601 4.03162C30.601 4.14871 30.2079 4.72577 28.3847 5.26937C26.687 5.77953 24.3453 6.08061 21.9534 6.08061C19.6452 6.08061 17.454 5.81298 15.7897 5.32792C13.9916 4.8094 13.4898 4.23234 13.448 4.04835C13.448 4.03162 13.448 4.02326 13.4397 4.02326C13.448 3.90617 13.8327 3.33748 15.5974 2.79387ZM30.7097 6.12242V8.2634C30.6344 8.38049 30.5926 8.52266 30.601 8.66483C30.601 8.77356 30.2079 9.35062 28.3847 9.90259C26.687 10.4127 24.3369 10.7138 21.945 10.7138C19.8793 10.7138 17.8554 10.4964 16.2497 10.0866C16.2246 10.0782 16.2079 10.0782 16.1828 10.0699C15.3883 9.44261 14.5102 8.94918 13.5651 8.58957L13.5066 6.23114C14.0836 6.52386 14.6858 6.75803 15.313 6.92529C17.1278 7.45217 19.4779 7.73652 21.945 7.73652C24.5293 7.73652 26.9881 7.42708 28.8614 6.85838C29.5054 6.68276 30.1243 6.43186 30.7097 6.12242ZM15.6225 24.1117C12.2186 27.2144 6.94146 26.9635 3.84707 23.5597C0.752688 20.1559 0.995221 14.8787 4.39904 11.7843C5.93787 10.3877 7.93668 9.60988 10.0108 9.60988C10.8471 9.60988 11.6834 9.73532 12.4863 9.97786C15.3799 10.8894 17.5627 13.2897 18.19 16.2586C18.2987 16.8106 18.3572 17.3793 18.3572 17.9396C18.3572 20.298 17.362 22.5394 15.6225 24.1117ZM17.7467 24.2957C18.4241 23.4677 18.9677 22.5394 19.3524 21.5442C20.0633 21.6027 20.816 21.6445 21.5854 21.6529V21.8034L21.6272 24.6385C20.3309 24.6218 19.0346 24.5047 17.7467 24.2957ZM19.9713 16.9528C20.4648 16.9862 20.9749 17.0029 21.4934 17.0113C21.4934 17.028 21.5018 17.0531 21.5018 17.0699L21.552 19.9719C20.9582 19.9635 20.3811 19.9384 19.8208 19.8966C19.9462 19.2526 20.0131 18.592 20.0131 17.9396C20.0215 17.6135 20.0048 17.2873 19.9713 16.9528ZM22.0287 15.347C22.0036 15.347 21.9785 15.347 21.9534 15.347C21.1505 15.347 20.3728 15.3136 19.6535 15.2634C19.3357 14.1427 18.8339 13.089 18.1565 12.1523C19.411 12.3112 20.6738 12.3948 21.945 12.3948C24.5293 12.3948 26.9881 12.0854 28.8698 11.5167C29.5137 11.316 30.1243 11.0734 30.7097 10.764V12.9802C27.1135 13.0806 23.4002 13.8333 22.0287 15.347ZM23.1493 16.635C23.233 16.4008 23.8435 15.8572 25.5579 15.3721C27.1888 14.9121 29.313 14.6613 31.546 14.6613H31.6547C34.0466 14.6613 36.3883 14.9372 38.0944 15.4558C39.859 15.991 40.2772 16.5262 40.3023 16.6684V16.6768C40.2939 16.8022 39.8757 17.3793 38.0191 17.9313C36.3047 18.4414 34.0466 18.7174 31.6547 18.7174C29.3967 18.7174 27.2389 18.4581 25.583 17.9982C23.9857 17.5466 23.3417 17.0364 23.1828 16.7771C23.1744 16.727 23.1661 16.6768 23.1493 16.635ZM40.3274 25.9432C40.3274 26.0603 39.951 26.6374 38.178 27.1893C36.4803 27.7162 34.2222 28.0089 31.8136 28.0089C29.3967 28.0089 27.1386 27.7246 25.4659 27.2144C23.6929 26.6708 23.3333 26.1105 23.3333 25.985C23.3333 25.9767 23.3333 25.9767 23.3333 25.9683L23.2915 23.5513C25.282 24.5633 28.6021 25.0233 31.6464 25.0233C34.2306 25.0233 36.6726 24.7138 38.546 24.1451C39.1649 23.9611 39.7587 23.7102 40.3274 23.4092V25.9432ZM40.2521 21.31C40.2521 21.4271 39.8674 21.9958 38.0609 22.5478C36.3465 23.0663 34.0717 23.3506 31.6464 23.3506C27.055 23.3506 23.9438 22.3219 23.2581 21.5107L23.2413 20.7915L23.2079 18.8763C23.8184 19.1857 24.454 19.4283 25.1147 19.6039C26.9128 20.1057 29.2294 20.39 31.638 20.39C34.1804 20.39 36.6057 20.089 38.4707 19.537C39.1147 19.353 39.7336 19.1105 40.319 18.801V20.9504H40.3274C40.3274 21.0591 40.2521 21.1845 40.2521 21.31Z" fill="white"/>
</svg>
