<svg width="35" height="30" viewBox="0 0 35 30" fill="none" xmlns="http://www.w3.org/2000/svg">
<path d="M29.719 5.78846C29.2548 5.30078 28.5263 5.22887 27.9837 5.61736C25.9399 7.08133 15.6882 14.4429 14.5865 15.6006C12.9887 17.2797 12.9887 20.0115 14.5865 21.6906C15.3853 22.53 16.4348 22.9498 17.4841 22.9498C18.5334 22.9498 19.5828 22.53 20.3817 21.6906C21.4834 20.5328 28.4887 9.75979 29.8819 7.612C30.2514 7.04193 30.183 6.27628 29.719 5.78846ZM18.4499 19.6606C17.9174 20.2203 17.0508 20.2203 16.5182 19.6606C15.9857 19.101 15.9856 18.1906 16.518 17.6309C16.9461 17.1864 19.8567 15.005 23.4378 12.3892C20.9486 16.1524 18.8728 19.2109 18.4499 19.6606Z" fill="white"/>
<path d="M6.2991 25.322L4.61284 26.1864C3.37899 23.8724 2.73188 21.2896 2.73188 18.6457C2.73188 16.7085 3.07179 14.8532 3.69213 13.1421L5.62432 14.116C5.81487 14.2121 6.016 14.2576 6.21413 14.2576C6.72315 14.2576 7.21181 13.9572 7.44669 13.4426C7.77287 12.7278 7.48603 11.8704 6.80579 11.5276L4.89812 10.566C7.26918 6.50234 11.3716 3.66921 16.1181 3.20916V5.36808C16.1181 6.16086 16.7297 6.80349 17.4841 6.80349C18.2385 6.80349 18.85 6.16086 18.85 5.36808V3.20808C20.4774 3.36375 22.0521 3.79926 23.5469 4.50835C24.2343 4.83454 25.0434 4.51308 25.3538 3.79071C25.6642 3.06813 25.3584 2.21801 24.6708 1.89181C22.4057 0.817341 19.9877 0.272461 17.484 0.272461C12.8139 0.272461 8.42327 2.18356 5.1209 5.6538C1.81868 9.12411 0 13.738 0 18.6457C0 22.2722 1.02432 25.7993 2.96224 28.8453C3.22327 29.2555 3.65484 29.4831 4.09864 29.4831C4.30038 29.4831 4.50473 29.4361 4.69671 29.3377L7.49689 27.9022C8.17494 27.5547 8.45646 26.6954 8.1257 25.9828C7.79493 25.2704 6.97715 24.9746 6.2991 25.322Z" fill="white"/>
<path d="M33.4271 11.0934C33.1167 10.3709 32.3079 10.0494 31.6201 10.3757C30.9325 10.7019 30.6267 11.552 30.9372 12.2745C31.7992 14.2811 32.2362 16.4247 32.2362 18.6457C32.2362 21.2936 31.587 23.8805 30.3495 26.1972L28.589 25.3162C27.908 24.9755 27.0929 25.2793 26.7685 25.9951C26.4442 26.7108 26.7334 27.5674 27.4145 27.9082L30.283 29.3436C30.4717 29.438 30.6717 29.4831 30.8695 29.4831C31.3135 29.4831 31.7451 29.2553 32.0058 28.8454C33.9438 25.7993 34.9681 22.2722 34.9681 18.6457C34.9681 16.0146 34.4496 13.4737 33.4271 11.0934Z" fill="white"/>
</svg>
