<svg width="32" height="32" viewBox="0 0 32 32" fill="none" xmlns="http://www.w3.org/2000/svg">
<g clip-path="url(#clip0)">
<path d="M25.3125 16.0628C23.2447 16.0628 21.5625 17.7451 21.5625 19.8128C21.5625 21.8806 23.2447 23.5628 25.3125 23.5628H30.6249C30.6461 23.5628 30.6668 23.5607 30.6878 23.5596C30.7085 23.5606 30.7289 23.5627 30.7499 23.5627C31.4403 23.5627 31.9999 23.0031 31.9999 22.3127V12.5003C31.9999 10.8361 31.182 9.36021 29.9278 8.4509L25.6753 1.47466C25.5019 1.19016 25.2221 0.986662 24.898 0.909412C24.5738 0.832038 24.2323 0.88735 23.9491 1.06297L20.8131 3.00772L19.3988 0.614351C19.2288 0.326601 18.9507 0.118977 18.6265 0.0377267C18.3023 -0.0435231 17.959 0.00853929 17.6735 0.182039L5.6318 7.50027H3.74999C3.07118 7.50027 2.517 6.9564 2.50037 6.28153C2.517 5.60665 3.07118 5.06278 3.74999 5.06278H6.06249C6.75286 5.06278 7.31249 4.50316 7.31249 3.81278C7.31249 3.12241 6.75286 2.56278 6.06249 2.56278H3.74999C1.98137 2.56278 0.494937 3.79366 0.101875 5.44372C0.0364999 5.59534 0 5.76222 0 5.93778V6.25028V6.31278V27.0002C0 29.7572 2.243 32.0002 4.99999 32.0002H26.9999C29.1556 32.0002 31.062 30.627 31.7438 28.5833C31.9623 27.9284 31.6084 27.2204 30.9536 27.002C30.2988 26.7835 29.5907 27.1373 29.3723 27.7922C29.0314 28.8138 28.0781 29.5002 26.9999 29.5002H4.99999C3.62149 29.5002 2.5 28.3787 2.5 27.0002V9.78583C2.89118 9.92458 3.31187 10.0003 3.74999 10.0003H26.9999C28.3784 10.0003 29.4999 11.1218 29.4999 12.5003V16.0628H25.3125ZM29.4999 21.0627H25.3125C24.6232 21.0628 24.0625 20.5021 24.0625 19.8127C24.0625 19.1235 24.6232 18.5628 25.3125 18.5628H29.4999V21.0627ZM10.4455 7.50034L17.8904 2.97578L19.2215 5.22834C19.247 5.2899 19.2764 5.35059 19.3127 5.40909C19.3398 5.4529 19.37 5.49372 19.4014 5.53297L20.5639 7.50034H10.4455ZM23.4678 7.50027L22.0852 5.16053L24.1962 3.85147L26.4205 7.50027H23.4678Z" fill="white"/>
</g>
<defs>
<clipPath id="clip0">
<rect width="32" height="32" fill="white"/>
</clipPath>
</defs>
</svg>
