<svg width="32" height="32" viewBox="0 0 32 32" fill="none" xmlns="http://www.w3.org/2000/svg">
<path d="M25.2361 9.24487C25.2361 4.14722 21.0886 0 15.9912 0C10.8936 0 6.74634 4.14722 6.74634 9.24487C6.74634 12.4023 8.33789 15.1948 10.7603 16.8633C8.49854 17.6438 6.42529 18.9331 4.68359 20.6748C1.66333 23.6951 0 27.7109 0 31.9822H2.49854C2.49854 24.5425 8.55127 18.4897 15.9912 18.4897C21.0886 18.4897 25.2361 14.3425 25.2361 9.24487V9.24487ZM15.9912 15.9912C12.2712 15.9912 9.24487 12.9648 9.24487 9.24487C9.24487 5.5249 12.2712 2.49854 15.9912 2.49854C19.7109 2.49854 22.7373 5.5249 22.7373 9.24487C22.7373 12.9648 19.7109 15.9912 15.9912 15.9912V15.9912ZM32 22.9873L26.1194 28.8679L24.3525 27.1011L27.2795 24.1741H25.1125C22.1189 24.1741 19.6812 26.6099 19.6787 29.6035L19.6765 31.9832L17.178 31.9812L17.1799 29.6013C17.1836 25.231 20.7422 21.6753 25.1125 21.6753H27.1545L24.3525 18.8733L26.1194 17.1067L32 22.9873Z" fill="white"/>
</svg>
