<svg width="34" height="34" viewBox="0 0 34 34" fill="none" xmlns="http://www.w3.org/2000/svg">
<mask id="path-1-outside-1" maskUnits="userSpaceOnUse" x="0" y="0" width="34" height="34" fill="black">
<rect fill="white" width="34" height="34"/>
<path d="M31.362 13.6408L29.116 13.2598C28.882 12.5044 28.5812 11.7758 28.2135 11.0806L29.5371 9.2289C30.0986 8.4401 30.0117 7.36386 29.3232 6.68202L27.3312 4.68997C26.9568 4.31563 26.4621 4.1084 25.934 4.1084C25.5196 4.1084 25.1252 4.23541 24.791 4.47606L22.9326 5.79964C22.2106 5.41861 21.4553 5.10442 20.6732 4.87046L20.2988 2.65113C20.1384 1.69521 19.3162 1 18.3469 1H15.5326C14.5633 1 13.7411 1.69521 13.5807 2.65113L13.1929 4.92394C12.4443 5.1579 11.7156 5.4654 11.0204 5.83974L9.18211 4.51617C8.84787 4.27552 8.44679 4.14851 8.03234 4.14851C7.50424 4.14851 7.00289 4.35573 6.63523 4.73008L4.63649 6.72213C3.95465 7.40397 3.86106 8.48021 4.42258 9.26901L5.75953 11.1474C5.39187 11.8493 5.09774 12.578 4.87046 13.3333L2.65113 13.7077C1.69521 13.8681 1 14.6903 1 15.6596V18.4739C1 19.4432 1.69521 20.2654 2.65113 20.4258L4.92394 20.8135C5.1579 21.5622 5.4654 22.2909 5.83974 22.9861L4.52285 24.8177C3.96134 25.6065 4.04824 26.6827 4.73676 27.3646L6.72881 29.3566C7.10316 29.731 7.59783 29.9382 8.12592 29.9382C8.54038 29.9382 8.93477 29.8112 9.26901 29.5705L11.1474 28.2336C11.8226 28.5879 12.5312 28.8753 13.2598 29.1026L13.6341 31.3487C13.7946 32.3046 14.6168 32.9998 15.5861 32.9998H18.407C19.3763 32.9998 20.1985 32.3046 20.359 31.3487L20.74 29.1026C21.4954 28.8686 22.224 28.5678 22.9192 28.2002L24.7709 29.5237C25.1051 29.7644 25.5062 29.8914 25.9207 29.8914C26.4488 29.8914 26.9434 29.6842 27.3178 29.3098L29.3098 27.3178C29.9917 26.6359 30.0853 25.5597 29.5237 24.7709L28.2002 22.9125C28.5678 22.2106 28.8753 21.482 29.1026 20.7333L31.3487 20.359C32.3046 20.1985 32.9998 19.3763 32.9998 18.407V15.5928C33.0132 14.6235 32.318 13.8013 31.362 13.6408ZM31.2083 18.407C31.2083 18.4939 31.1481 18.5675 31.0612 18.5808L28.2536 19.0488C27.8994 19.1089 27.6186 19.3696 27.5317 19.7106C27.2777 20.6932 26.89 21.6358 26.3686 22.5115C26.1881 22.819 26.2014 23.2 26.4087 23.4941L28.0598 25.8204C28.1066 25.8872 28.0999 25.9875 28.0397 26.0477L26.0477 28.0397C26.0009 28.0865 25.9541 28.0932 25.9207 28.0932C25.8806 28.0932 25.8471 28.0798 25.8204 28.0598L23.5008 26.4087C23.2134 26.2014 22.8256 26.1881 22.5181 26.3685C21.6424 26.89 20.6999 27.2777 19.7172 27.5317C19.3696 27.6186 19.1089 27.906 19.0555 28.2536L18.5808 31.0612C18.5675 31.1481 18.4939 31.2083 18.407 31.2083H15.5928C15.5059 31.2083 15.4323 31.1481 15.419 31.0612L14.951 28.2536C14.8909 27.8993 14.6302 27.6186 14.2892 27.5317C13.3333 27.2844 12.4108 26.9033 11.5485 26.4087C11.4081 26.3284 11.2477 26.2883 11.0939 26.2883C10.9135 26.2883 10.7263 26.3418 10.5725 26.4554L8.23288 28.1199C8.19945 28.14 8.16603 28.1534 8.13261 28.1534C8.10587 28.1534 8.05239 28.1467 8.0056 28.0999L6.01355 26.1078C5.95338 26.0477 5.9467 25.9541 5.99349 25.8806L7.63794 23.5743C7.84516 23.2802 7.85853 22.8925 7.67805 22.585C7.15664 21.716 6.75555 20.7734 6.50153 19.7908C6.40795 19.4499 6.12719 19.1891 5.77958 19.129L2.95194 18.6477C2.86504 18.6343 2.80488 18.5608 2.80488 18.4739V15.6596C2.80488 15.5727 2.86504 15.4992 2.95194 15.4858L5.73947 15.0179C6.09376 14.9577 6.38121 14.697 6.46811 14.3494C6.71544 13.3667 7.09647 12.4175 7.6112 11.5418C7.79169 11.2343 7.77163 10.8533 7.5644 10.5658L5.89991 8.22619C5.85311 8.15935 5.8598 8.05907 5.91996 7.99891L7.91201 6.00686C7.9588 5.96007 8.0056 5.95338 8.03902 5.95338C8.07913 5.95338 8.11255 5.96675 8.13929 5.98681L10.4455 7.63125C10.7397 7.83848 11.1274 7.85185 11.4349 7.67136C12.3039 7.14995 13.2464 6.74887 14.2291 6.49485C14.57 6.40126 14.8307 6.1205 14.8909 5.7729L15.3722 2.94526C15.3855 2.85835 15.4591 2.79819 15.546 2.79819H18.3602C18.4471 2.79819 18.5207 2.85835 18.534 2.94526L19.002 5.73279C19.0621 6.08708 19.3228 6.37452 19.6705 6.46142C20.6798 6.71544 21.6424 7.10984 22.5382 7.63794C22.8457 7.81842 23.2267 7.80505 23.5209 7.59783L25.8271 5.94002C25.8605 5.91996 25.8939 5.90659 25.9274 5.90659C25.9541 5.90659 26.0076 5.91328 26.0544 5.96007L28.0464 7.95212C28.1066 8.01228 28.1133 8.10587 28.0665 8.1794L26.4153 10.499C26.2081 10.7864 26.1947 11.1742 26.3752 11.4817C26.8966 12.3574 27.2844 13.2999 27.5384 14.2826C27.6253 14.6302 27.9127 14.8909 28.2603 14.9443L31.0679 15.419C31.1548 15.4323 31.215 15.5059 31.215 15.5928V18.407H31.2083Z"/>
</mask>
<path d="M31.362 13.6408L29.116 13.2598C28.882 12.5044 28.5812 11.7758 28.2135 11.0806L29.5371 9.2289C30.0986 8.4401 30.0117 7.36386 29.3232 6.68202L27.3312 4.68997C26.9568 4.31563 26.4621 4.1084 25.934 4.1084C25.5196 4.1084 25.1252 4.23541 24.791 4.47606L22.9326 5.79964C22.2106 5.41861 21.4553 5.10442 20.6732 4.87046L20.2988 2.65113C20.1384 1.69521 19.3162 1 18.3469 1H15.5326C14.5633 1 13.7411 1.69521 13.5807 2.65113L13.1929 4.92394C12.4443 5.1579 11.7156 5.4654 11.0204 5.83974L9.18211 4.51617C8.84787 4.27552 8.44679 4.14851 8.03234 4.14851C7.50424 4.14851 7.00289 4.35573 6.63523 4.73008L4.63649 6.72213C3.95465 7.40397 3.86106 8.48021 4.42258 9.26901L5.75953 11.1474C5.39187 11.8493 5.09774 12.578 4.87046 13.3333L2.65113 13.7077C1.69521 13.8681 1 14.6903 1 15.6596V18.4739C1 19.4432 1.69521 20.2654 2.65113 20.4258L4.92394 20.8135C5.1579 21.5622 5.4654 22.2909 5.83974 22.9861L4.52285 24.8177C3.96134 25.6065 4.04824 26.6827 4.73676 27.3646L6.72881 29.3566C7.10316 29.731 7.59783 29.9382 8.12592 29.9382C8.54038 29.9382 8.93477 29.8112 9.26901 29.5705L11.1474 28.2336C11.8226 28.5879 12.5312 28.8753 13.2598 29.1026L13.6341 31.3487C13.7946 32.3046 14.6168 32.9998 15.5861 32.9998H18.407C19.3763 32.9998 20.1985 32.3046 20.359 31.3487L20.74 29.1026C21.4954 28.8686 22.224 28.5678 22.9192 28.2002L24.7709 29.5237C25.1051 29.7644 25.5062 29.8914 25.9207 29.8914C26.4488 29.8914 26.9434 29.6842 27.3178 29.3098L29.3098 27.3178C29.9917 26.6359 30.0853 25.5597 29.5237 24.7709L28.2002 22.9125C28.5678 22.2106 28.8753 21.482 29.1026 20.7333L31.3487 20.359C32.3046 20.1985 32.9998 19.3763 32.9998 18.407V15.5928C33.0132 14.6235 32.318 13.8013 31.362 13.6408ZM31.2083 18.407C31.2083 18.4939 31.1481 18.5675 31.0612 18.5808L28.2536 19.0488C27.8994 19.1089 27.6186 19.3696 27.5317 19.7106C27.2777 20.6932 26.89 21.6358 26.3686 22.5115C26.1881 22.819 26.2014 23.2 26.4087 23.4941L28.0598 25.8204C28.1066 25.8872 28.0999 25.9875 28.0397 26.0477L26.0477 28.0397C26.0009 28.0865 25.9541 28.0932 25.9207 28.0932C25.8806 28.0932 25.8471 28.0798 25.8204 28.0598L23.5008 26.4087C23.2134 26.2014 22.8256 26.1881 22.5181 26.3685C21.6424 26.89 20.6999 27.2777 19.7172 27.5317C19.3696 27.6186 19.1089 27.906 19.0555 28.2536L18.5808 31.0612C18.5675 31.1481 18.4939 31.2083 18.407 31.2083H15.5928C15.5059 31.2083 15.4323 31.1481 15.419 31.0612L14.951 28.2536C14.8909 27.8993 14.6302 27.6186 14.2892 27.5317C13.3333 27.2844 12.4108 26.9033 11.5485 26.4087C11.4081 26.3284 11.2477 26.2883 11.0939 26.2883C10.9135 26.2883 10.7263 26.3418 10.5725 26.4554L8.23288 28.1199C8.19945 28.14 8.16603 28.1534 8.13261 28.1534C8.10587 28.1534 8.05239 28.1467 8.0056 28.0999L6.01355 26.1078C5.95338 26.0477 5.9467 25.9541 5.99349 25.8806L7.63794 23.5743C7.84516 23.2802 7.85853 22.8925 7.67805 22.585C7.15664 21.716 6.75555 20.7734 6.50153 19.7908C6.40795 19.4499 6.12719 19.1891 5.77958 19.129L2.95194 18.6477C2.86504 18.6343 2.80488 18.5608 2.80488 18.4739V15.6596C2.80488 15.5727 2.86504 15.4992 2.95194 15.4858L5.73947 15.0179C6.09376 14.9577 6.38121 14.697 6.46811 14.3494C6.71544 13.3667 7.09647 12.4175 7.6112 11.5418C7.79169 11.2343 7.77163 10.8533 7.5644 10.5658L5.89991 8.22619C5.85311 8.15935 5.8598 8.05907 5.91996 7.99891L7.91201 6.00686C7.9588 5.96007 8.0056 5.95338 8.03902 5.95338C8.07913 5.95338 8.11255 5.96675 8.13929 5.98681L10.4455 7.63125C10.7397 7.83848 11.1274 7.85185 11.4349 7.67136C12.3039 7.14995 13.2464 6.74887 14.2291 6.49485C14.57 6.40126 14.8307 6.1205 14.8909 5.7729L15.3722 2.94526C15.3855 2.85835 15.4591 2.79819 15.546 2.79819H18.3602C18.4471 2.79819 18.5207 2.85835 18.534 2.94526L19.002 5.73279C19.0621 6.08708 19.3228 6.37452 19.6705 6.46142C20.6798 6.71544 21.6424 7.10984 22.5382 7.63794C22.8457 7.81842 23.2267 7.80505 23.5209 7.59783L25.8271 5.94002C25.8605 5.91996 25.8939 5.90659 25.9274 5.90659C25.9541 5.90659 26.0076 5.91328 26.0544 5.96007L28.0464 7.95212C28.1066 8.01228 28.1133 8.10587 28.0665 8.1794L26.4153 10.499C26.2081 10.7864 26.1947 11.1742 26.3752 11.4817C26.8966 12.3574 27.2844 13.2999 27.5384 14.2826C27.6253 14.6302 27.9127 14.8909 28.2603 14.9443L31.0679 15.419C31.1548 15.4323 31.215 15.5059 31.215 15.5928V18.407H31.2083Z" fill="white"/>
<path d="M31.362 13.6408L29.116 13.2598C28.882 12.5044 28.5812 11.7758 28.2135 11.0806L29.5371 9.2289C30.0986 8.4401 30.0117 7.36386 29.3232 6.68202L27.3312 4.68997C26.9568 4.31563 26.4621 4.1084 25.934 4.1084C25.5196 4.1084 25.1252 4.23541 24.791 4.47606L22.9326 5.79964C22.2106 5.41861 21.4553 5.10442 20.6732 4.87046L20.2988 2.65113C20.1384 1.69521 19.3162 1 18.3469 1H15.5326C14.5633 1 13.7411 1.69521 13.5807 2.65113L13.1929 4.92394C12.4443 5.1579 11.7156 5.4654 11.0204 5.83974L9.18211 4.51617C8.84787 4.27552 8.44679 4.14851 8.03234 4.14851C7.50424 4.14851 7.00289 4.35573 6.63523 4.73008L4.63649 6.72213C3.95465 7.40397 3.86106 8.48021 4.42258 9.26901L5.75953 11.1474C5.39187 11.8493 5.09774 12.578 4.87046 13.3333L2.65113 13.7077C1.69521 13.8681 1 14.6903 1 15.6596V18.4739C1 19.4432 1.69521 20.2654 2.65113 20.4258L4.92394 20.8135C5.1579 21.5622 5.4654 22.2909 5.83974 22.9861L4.52285 24.8177C3.96134 25.6065 4.04824 26.6827 4.73676 27.3646L6.72881 29.3566C7.10316 29.731 7.59783 29.9382 8.12592 29.9382C8.54038 29.9382 8.93477 29.8112 9.26901 29.5705L11.1474 28.2336C11.8226 28.5879 12.5312 28.8753 13.2598 29.1026L13.6341 31.3487C13.7946 32.3046 14.6168 32.9998 15.5861 32.9998H18.407C19.3763 32.9998 20.1985 32.3046 20.359 31.3487L20.74 29.1026C21.4954 28.8686 22.224 28.5678 22.9192 28.2002L24.7709 29.5237C25.1051 29.7644 25.5062 29.8914 25.9207 29.8914C26.4488 29.8914 26.9434 29.6842 27.3178 29.3098L29.3098 27.3178C29.9917 26.6359 30.0853 25.5597 29.5237 24.7709L28.2002 22.9125C28.5678 22.2106 28.8753 21.482 29.1026 20.7333L31.3487 20.359C32.3046 20.1985 32.9998 19.3763 32.9998 18.407V15.5928C33.0132 14.6235 32.318 13.8013 31.362 13.6408ZM31.2083 18.407C31.2083 18.4939 31.1481 18.5675 31.0612 18.5808L28.2536 19.0488C27.8994 19.1089 27.6186 19.3696 27.5317 19.7106C27.2777 20.6932 26.89 21.6358 26.3686 22.5115C26.1881 22.819 26.2014 23.2 26.4087 23.4941L28.0598 25.8204C28.1066 25.8872 28.0999 25.9875 28.0397 26.0477L26.0477 28.0397C26.0009 28.0865 25.9541 28.0932 25.9207 28.0932C25.8806 28.0932 25.8471 28.0798 25.8204 28.0598L23.5008 26.4087C23.2134 26.2014 22.8256 26.1881 22.5181 26.3685C21.6424 26.89 20.6999 27.2777 19.7172 27.5317C19.3696 27.6186 19.1089 27.906 19.0555 28.2536L18.5808 31.0612C18.5675 31.1481 18.4939 31.2083 18.407 31.2083H15.5928C15.5059 31.2083 15.4323 31.1481 15.419 31.0612L14.951 28.2536C14.8909 27.8993 14.6302 27.6186 14.2892 27.5317C13.3333 27.2844 12.4108 26.9033 11.5485 26.4087C11.4081 26.3284 11.2477 26.2883 11.0939 26.2883C10.9135 26.2883 10.7263 26.3418 10.5725 26.4554L8.23288 28.1199C8.19945 28.14 8.16603 28.1534 8.13261 28.1534C8.10587 28.1534 8.05239 28.1467 8.0056 28.0999L6.01355 26.1078C5.95338 26.0477 5.9467 25.9541 5.99349 25.8806L7.63794 23.5743C7.84516 23.2802 7.85853 22.8925 7.67805 22.585C7.15664 21.716 6.75555 20.7734 6.50153 19.7908C6.40795 19.4499 6.12719 19.1891 5.77958 19.129L2.95194 18.6477C2.86504 18.6343 2.80488 18.5608 2.80488 18.4739V15.6596C2.80488 15.5727 2.86504 15.4992 2.95194 15.4858L5.73947 15.0179C6.09376 14.9577 6.38121 14.697 6.46811 14.3494C6.71544 13.3667 7.09647 12.4175 7.6112 11.5418C7.79169 11.2343 7.77163 10.8533 7.5644 10.5658L5.89991 8.22619C5.85311 8.15935 5.8598 8.05907 5.91996 7.99891L7.91201 6.00686C7.9588 5.96007 8.0056 5.95338 8.03902 5.95338C8.07913 5.95338 8.11255 5.96675 8.13929 5.98681L10.4455 7.63125C10.7397 7.83848 11.1274 7.85185 11.4349 7.67136C12.3039 7.14995 13.2464 6.74887 14.2291 6.49485C14.57 6.40126 14.8307 6.1205 14.8909 5.7729L15.3722 2.94526C15.3855 2.85835 15.4591 2.79819 15.546 2.79819H18.3602C18.4471 2.79819 18.5207 2.85835 18.534 2.94526L19.002 5.73279C19.0621 6.08708 19.3228 6.37452 19.6705 6.46142C20.6798 6.71544 21.6424 7.10984 22.5382 7.63794C22.8457 7.81842 23.2267 7.80505 23.5209 7.59783L25.8271 5.94002C25.8605 5.91996 25.8939 5.90659 25.9274 5.90659C25.9541 5.90659 26.0076 5.91328 26.0544 5.96007L28.0464 7.95212C28.1066 8.01228 28.1133 8.10587 28.0665 8.1794L26.4153 10.499C26.2081 10.7864 26.1947 11.1742 26.3752 11.4817C26.8966 12.3574 27.2844 13.2999 27.5384 14.2826C27.6253 14.6302 27.9127 14.8909 28.2603 14.9443L31.0679 15.419C31.1548 15.4323 31.215 15.5059 31.215 15.5928V18.407H31.2083Z" stroke="white" stroke-width="0.4" mask="url(#path-1-outside-1)"/>
<path d="M17.0035 9.99033C13.1379 9.99033 9.99814 13.1301 9.99814 16.9957C9.99814 20.8612 13.1379 24.001 17.0035 24.001C20.869 24.001 24.0088 20.8612 24.0088 16.9957C24.0088 13.1301 20.869 9.99033 17.0035 9.99033ZM17.0035 21.9961C14.2444 21.9961 12.003 19.7547 12.003 16.9957C12.003 14.2366 14.2444 11.9952 17.0035 11.9952C19.7625 11.9952 22.0039 14.2366 22.0039 16.9957C22.0039 19.7547 19.7625 21.9961 17.0035 21.9961Z" fill="white" stroke="white" stroke-width="0.2"/>
</svg>
