<svg width="22" height="22" viewBox="0 0 22 22" fill="none" xmlns="http://www.w3.org/2000/svg">
<path d="M18.7994 15.6236C18.0781 15.6236 17.4127 15.8656 16.879 16.2721L13.5154 12.9087C13.922 12.375 14.1641 11.7095 14.1641 10.9883C14.1641 10.644 14.1083 10.3126 14.0064 10.0019L17.4684 8.3235C17.921 8.94924 18.6566 9.3575 19.4861 9.3575C20.8587 9.3575 21.9754 8.24083 21.9754 6.86832C21.9754 5.49581 20.8587 4.37914 19.4861 4.37914C18.1136 4.37914 16.9968 5.49581 16.9968 6.86832C16.9968 7.10533 17.0308 7.33435 17.093 7.55166L13.6313 9.22998C13.1367 8.48909 12.3393 7.96747 11.4173 7.84232V6.70136C12.0131 6.51762 12.4474 5.96192 12.4474 5.3067C12.4474 4.50207 11.7928 3.84753 10.9881 3.84753C10.1835 3.84753 9.52891 4.50211 9.52891 5.3067C9.52891 5.96201 9.96316 6.5177 10.559 6.70136V7.84232C10.0037 7.91769 9.49363 8.13667 9.06767 8.46115L6.29326 5.68685C6.96976 4.81955 7.20888 3.67053 6.91584 2.59378C6.85356 2.36501 6.61766 2.23003 6.38902 2.29239C6.16028 2.35462 6.02538 2.59047 6.08762 2.8192C6.33699 3.73551 6.07714 4.72096 5.4097 5.39413C5.40691 5.39679 5.40395 5.39906 5.4012 5.40181C5.3988 5.40421 5.39674 5.40688 5.39442 5.40932C4.35634 6.43954 2.6737 6.43731 1.63867 5.40228C0.601154 4.36485 0.601154 2.67674 1.63867 1.63927C2.29483 0.983098 3.22667 0.718235 4.13143 0.930606C4.36205 0.984686 4.59315 0.841674 4.64736 0.61089C4.70152 0.38015 4.55838 0.149194 4.32763 0.0949854C3.13147 -0.185801 1.89934 0.164517 1.03158 1.0322C-0.340605 2.40433 -0.340605 4.63697 1.03158 6.00914C1.71769 6.69522 2.61889 7.03824 3.52013 7.03824C4.28634 7.03824 5.05194 6.78935 5.68595 6.29349L8.46058 9.068C8.05406 9.60172 7.81202 10.2672 7.81202 10.9882C7.81202 12.7394 9.23674 14.1641 10.988 14.1641C11.7092 14.1641 12.3746 13.9221 12.9083 13.5156L16.2719 16.879C15.8654 17.4127 15.6233 18.0782 15.6233 18.7993C15.6233 20.5505 17.048 21.9752 18.7993 21.9752C20.5506 21.9752 21.9753 20.5505 21.9753 18.7993C21.9754 17.0482 20.5506 15.6236 18.7994 15.6236ZM19.486 5.23738C20.3853 5.23738 21.117 5.96901 21.117 6.86823C21.117 7.76746 20.3853 8.49909 19.486 8.49909C18.5868 8.49909 17.8551 7.76746 17.8551 6.86823C17.8551 5.96896 18.5868 5.23738 19.486 5.23738ZM10.3871 5.30653C10.3871 4.97522 10.6567 4.70568 10.988 4.70568C11.3193 4.70568 11.5889 4.97518 11.5889 5.30653C11.5889 5.63783 11.3194 5.90737 10.988 5.90737C10.6567 5.90737 10.3871 5.63787 10.3871 5.30653ZM10.988 13.3058C9.71004 13.3058 8.67038 12.2662 8.67038 10.9883C8.67038 9.71035 9.71004 8.67073 10.988 8.67073C12.266 8.67073 13.3056 9.71035 13.3056 10.9883C13.3056 12.2661 12.266 13.3058 10.988 13.3058ZM18.7994 21.117C17.5214 21.117 16.4817 20.0773 16.4817 18.7994C16.4817 17.5215 17.5214 16.4819 18.7994 16.4819C20.0773 16.4819 21.117 17.5215 21.117 18.7994C21.117 20.0773 20.0773 21.117 18.7994 21.117Z" fill="#D97703"/>
<path d="M6.02367 1.04712L6.00824 1.03161C5.84004 0.864246 5.56801 0.864848 5.40054 1.03307C5.23311 1.2013 5.23376 1.47329 5.402 1.6407L5.41309 1.65191C5.49714 1.73673 5.60776 1.77919 5.71838 1.77919C5.82766 1.77919 5.93699 1.73776 6.02074 1.65475C6.18942 1.48777 6.19071 1.21573 6.02367 1.04712Z" fill="#D97703"/>
<path d="M7.11682 14.8586C6.94921 14.691 6.67747 14.691 6.50986 14.8586L3.9184 17.45C3.5136 17.1651 3.02086 16.997 2.48927 16.997C1.1167 16.997 0 18.1137 0 19.4862C0 20.8587 1.1167 21.9754 2.48927 21.9754C3.86183 21.9754 4.97853 20.8587 4.97853 19.4862C4.97853 18.9546 4.81045 18.4618 4.5254 18.0569L7.11682 15.4656C7.28444 15.298 7.28444 15.0262 7.11682 14.8586ZM2.48927 21.1171C1.59001 21.1171 0.858356 20.3855 0.858356 19.4862C0.858356 18.587 1.59001 17.8554 2.48927 17.8554C3.38853 17.8554 4.12018 18.587 4.12018 19.4862C4.12018 20.3855 3.38853 21.1171 2.48927 21.1171Z" fill="#D97703"/>
<path d="M8.1372 13.8395C8.05727 13.7596 7.94642 13.7136 7.83345 13.7136C7.72049 13.7136 7.60958 13.7596 7.52971 13.8395C7.44978 13.9194 7.40381 14.0303 7.40381 14.1432C7.40381 14.2562 7.44978 14.3671 7.52971 14.447C7.60963 14.5269 7.72049 14.5729 7.83345 14.5729C7.94646 14.5729 8.05732 14.5269 8.1372 14.447C8.21712 14.3671 8.26309 14.2562 8.26309 14.1432C8.26309 14.0303 8.21707 13.9194 8.1372 13.8395Z" fill="#D97703"/>
</svg>
