<svg width="26" height="26" viewBox="0 0 26 26" fill="none" xmlns="http://www.w3.org/2000/svg">
<path d="M9.53946 12.1927C12.5443 12.1927 14.9804 9.75663 14.9804 6.75146C14.9804 3.7466 12.5443 1.31055 9.53946 1.31055C6.53445 1.31055 4.09839 3.7466 4.09839 6.75146C4.10129 9.75534 6.53557 12.1896 9.53946 12.1927ZM9.53946 2.34008C11.9757 2.34008 13.951 4.31524 13.951 6.75146C13.951 9.188 11.9757 11.1632 9.53946 11.1632C7.10308 11.1632 5.12792 9.188 5.12792 6.75146C5.13082 4.31637 7.10421 2.34282 9.53946 2.34008Z" fill="#C243FE"/>
<path d="M22.5628 13.2477C22.4665 13.1513 22.336 13.0972 22.1999 13.0972C22.0637 13.0972 21.9331 13.1513 21.8369 13.2477L20.4934 14.5911L17.1784 17.9063C15.6303 15.1377 12.7063 13.4228 9.53426 13.4228C4.71094 13.4228 0.783325 17.3504 0.783325 22.1736C0.78413 22.4575 1.0141 22.6876 1.29801 22.6884H14.0693L13.6471 23.9495C13.5841 24.1337 13.6319 24.3378 13.7708 24.4745C13.868 24.5706 13.9993 24.6243 14.136 24.6239C14.192 24.623 14.2474 24.6143 14.3009 24.5982L17.9607 23.3781C17.966 23.3781 17.966 23.3781 17.971 23.373C17.9874 23.3685 18.0031 23.3614 18.0174 23.3524C18.0213 23.3519 18.025 23.3501 18.0277 23.3472C18.0432 23.3371 18.0638 23.3266 18.0792 23.3163C18.0947 23.3062 18.1101 23.2905 18.1254 23.2804C18.1306 23.2751 18.1359 23.2751 18.1359 23.2701C18.1409 23.2649 18.1512 23.2598 18.1564 23.2493L23.6643 17.757L25.008 16.4136C25.1043 16.3172 25.1584 16.1867 25.1584 16.0506C25.1584 15.9144 25.1043 15.7838 25.008 15.6877L22.5628 13.2477ZM17.8063 22.1581L16.0922 20.444L20.8536 15.6825L22.5679 17.3966L17.8063 22.1581ZM1.83331 21.6536C2.10112 17.6335 5.45221 14.447 9.53942 14.447C12.4423 14.4512 15.0992 16.0788 16.4216 18.663L15.0009 20.0836L14.9803 20.1044C14.9752 20.1093 14.9752 20.1147 14.9702 20.1147C14.9447 20.147 14.9225 20.1813 14.9032 20.2176C14.9025 20.2214 14.9008 20.225 14.8979 20.2277C14.8929 20.2433 14.8824 20.2588 14.8774 20.2742C14.8774 20.2792 14.8774 20.2792 14.8723 20.2846L14.4141 21.6589H1.83331V21.6536ZM15.5929 21.3962L16.854 22.6573L14.9597 23.2905L15.5929 21.3962ZM23.2987 16.6657L21.5848 14.9515L22.1972 14.3391L23.9115 16.0532L23.2987 16.6657Z" fill="#C243FE"/>
</svg>
