<svg width="22" height="22" viewBox="0 0 22 22" fill="none" xmlns="http://www.w3.org/2000/svg">
<path d="M19.3848 2.19097H2.61428C2.43058 2.19097 2.28149 2.04188 2.28149 1.85818C2.28149 1.67448 2.43058 1.52539 2.61428 1.52539H19.3848C19.5685 1.52539 19.7176 1.67448 19.7176 1.85818C19.7176 2.04188 19.5685 2.19097 19.3848 2.19097Z" fill="#FE3C82"/>
<path d="M20.3361 20.4736H1.66394C0.746112 20.4736 0 19.7269 0 18.8097V5.32776C0 4.4106 0.746112 3.66382 1.66394 3.66382H20.3361C21.2539 3.66382 22 4.4106 22 5.32776V18.8104C22 19.7275 21.2539 20.4736 20.3361 20.4736ZM1.66394 4.3294C1.11351 4.3294 0.665578 4.77733 0.665578 5.32776V18.8104C0.665578 19.3608 1.11351 19.8087 1.66394 19.8087H20.3361C20.8865 19.8087 21.3344 19.3608 21.3344 18.8104V5.32776C21.3344 4.77733 20.8865 4.3294 20.3361 4.3294H1.66394Z" fill="#FE3C82"/>
<path d="M16.7174 4.3294H5.28274C5.09904 4.3294 4.94995 4.18031 4.94995 3.99661C4.94995 3.81291 5.09904 3.66382 5.28274 3.66382H16.718C16.9017 3.66382 17.0508 3.81291 17.0508 3.99661C17.0508 4.18031 16.9017 4.3294 16.7174 4.3294Z" fill="#FE3C82"/>
<path d="M11.3755 17.1964H3.54568C3.36198 17.1964 3.21289 17.0473 3.21289 16.8636V15.9731C3.21289 15.418 3.53703 14.9048 4.03954 14.6672L5.80199 13.5837C5.23292 13.1224 4.8795 12.4376 4.85088 11.6961L4.78365 9.94164C4.78365 8.6005 5.87919 7.52026 7.22699 7.52026H7.69156C9.03869 7.52026 10.1356 8.60116 10.1356 9.92899L10.0677 11.6961C10.0391 12.4389 9.68563 13.1244 9.11457 13.585L10.8957 14.6752C11.3888 14.9162 11.707 15.424 11.707 15.9738V16.8636C11.7083 17.0473 11.5592 17.1964 11.3755 17.1964ZM3.87847 16.5309H11.0427V15.9738C11.0427 15.6736 10.867 15.3974 10.5955 15.2689C10.5848 15.2636 10.5742 15.2583 10.5642 15.2516L8.31787 13.8765C8.21471 13.8133 8.15347 13.6995 8.1588 13.5784C8.16479 13.4572 8.23467 13.3487 8.3425 13.2948C8.9708 12.9813 9.37747 12.359 9.40343 11.6701L9.47132 9.91568C9.47132 8.96723 8.67395 8.18518 7.69289 8.18518H7.22832C6.24792 8.18518 5.45056 8.96723 5.45056 9.92832L5.51779 11.6701C5.54374 12.357 5.94841 12.9793 6.57539 13.2935C6.68321 13.3474 6.75376 13.4559 6.75842 13.5764C6.76308 13.6975 6.70251 13.8113 6.60002 13.8745L4.35702 15.2509C4.05418 15.3967 3.87913 15.6729 3.87913 15.9724V16.5309H3.87847Z" fill="#FE3C82"/>
<path d="M18.5017 9.73516H14.3904C14.2067 9.73516 14.0576 9.58607 14.0576 9.40237C14.0576 9.21867 14.2067 9.06958 14.3904 9.06958H18.5017C18.6854 9.06958 18.8345 9.21867 18.8345 9.40237C18.8345 9.58607 18.6854 9.73516 18.5017 9.73516Z" fill="#FE3C82"/>
<path d="M18.5017 12.6897H14.3904C14.2067 12.6897 14.0576 12.5407 14.0576 12.357C14.0576 12.1733 14.2067 12.0242 14.3904 12.0242H18.5017C18.6854 12.0242 18.8345 12.1733 18.8345 12.357C18.8345 12.5407 18.6854 12.6897 18.5017 12.6897Z" fill="#FE3C82"/>
<path d="M18.5017 15.646H14.3904C14.2067 15.646 14.0576 15.497 14.0576 15.3133C14.0576 15.1296 14.2067 14.9805 14.3904 14.9805H18.5017C18.6854 14.9805 18.8345 15.1296 18.8345 15.3133C18.8345 15.497 18.6854 15.646 18.5017 15.646Z" fill="#FE3C82"/>
</svg>
