<svg width="22" height="22" viewBox="0 0 22 22" fill="none" xmlns="http://www.w3.org/2000/svg">
<g clip-path="url(#clip0)">
<path d="M21.4229 16.9723L20.5684 16.4029C22.4956 13.0132 22.4741 8.85418 20.5119 5.4846C18.5497 2.11502 14.9431 0.043629 11.0438 0.0468511C10.8413 0.0468511 10.6772 0.210967 10.6772 0.413449C10.6772 0.615931 10.8413 0.780047 11.0438 0.780047C14.6723 0.77734 18.0298 2.70004 19.8639 5.83096C21.6979 8.96185 21.733 12.8308 19.9562 15.9945L16.9686 14.0027C16.4035 13.629 15.6462 13.752 15.2283 14.2853L13.9327 15.953C13.7659 16.1727 13.463 16.2364 13.2219 16.1026L12.9751 15.9666C12.1572 15.5208 11.1395 14.9658 9.08905 12.9146C7.03858 10.8634 6.48244 9.84489 6.03662 9.02848L5.90133 8.78175C5.76552 8.54064 5.82808 8.23634 6.04796 8.06831L7.71455 6.77162C8.2478 6.35381 8.37098 5.59656 7.99759 5.0313L5.02803 0.578425C4.64532 0.00285766 3.87758 -0.169937 3.28518 0.186178L1.42314 1.3047C0.838082 1.64866 0.408846 2.20571 0.225439 2.85913C-0.445075 5.30222 0.0593462 9.51864 6.2705 15.7305C8.9761 18.4361 11.3023 20.0565 13.2691 20.9731C10.2418 21.6571 7.0678 20.9249 4.64597 18.9841C2.22413 17.0432 0.818191 14.1048 0.826311 11.0013C0.826311 10.7988 0.662195 10.6347 0.459713 10.6347C0.257231 10.6347 0.0931151 10.7988 0.0931151 11.0013C0.0987861 17.0475 4.99766 21.948 11.0438 21.9556C12.1765 21.956 13.3023 21.7786 14.38 21.4299C15.3523 21.7931 16.3799 21.9858 17.4177 21.9996C17.9996 22.0021 18.5791 21.9264 19.1408 21.7746C19.7944 21.5914 20.3515 21.1621 20.6952 20.5769L21.8149 18.7159C22.1715 18.1234 21.9988 17.3551 21.4229 16.9723ZM21.1846 18.3386L20.0676 20.2006C19.8206 20.6238 19.4193 20.9348 18.9479 21.0684C17.8815 21.3617 16.437 21.3983 14.5808 20.7293C14.5514 20.7128 14.5198 20.7005 14.487 20.6926C12.4339 19.9304 9.88488 18.306 6.78811 15.2103C0.827041 9.24957 0.313426 5.30884 0.932643 3.0531C1.06651 2.58189 1.37748 2.18066 1.8004 1.93346L3.66243 0.816393C3.91947 0.661729 4.25269 0.736698 4.41874 0.986481L6.03185 3.40831L7.38576 5.43897C7.5479 5.68416 7.49463 6.01278 7.26332 6.19421L5.59634 7.4909C5.08904 7.87881 4.94417 8.58068 5.25651 9.13773L5.38887 9.37824C5.85742 10.2376 6.43995 11.3066 8.56667 13.433C10.6934 15.5593 11.7621 16.1419 12.621 16.6104L12.8619 16.7431C13.4189 17.0554 14.1208 16.9106 14.5087 16.4033L15.8054 14.7363C15.9869 14.5051 16.3154 14.4519 16.5606 14.6138L21.0131 17.5834C21.263 17.7488 21.3385 18.0815 21.1846 18.3386Z" fill="#1CA9EE"/>
</g>
<defs>
<clipPath id="clip0">
<rect width="22" height="22" fill="white"/>
</clipPath>
</defs>
</svg>
