<svg width="22" height="22" viewBox="0 0 22 22" fill="none" xmlns="http://www.w3.org/2000/svg">
<g clip-path="url(#clip0)">
<path d="M14.812 12.9075L14.7557 12.8821C14.6214 12.821 14.4862 12.7633 14.3483 12.7094C14.1979 12.6491 14.0452 12.5934 13.8904 12.5411C13.7681 12.501 13.6449 12.4635 13.5204 12.4269C13.3308 12.3721 13.1393 12.3225 12.9421 12.2787C12.8751 12.2649 12.8069 12.2515 12.739 12.2394L12.6926 12.2305C12.5762 12.2077 12.4592 12.1876 12.341 12.1702L12.3071 12.1648C12.3058 12.1648 12.3049 12.1639 12.3036 12.1639L12.2697 12.1595C12.1715 12.1448 12.0738 12.131 11.972 12.1194L11.6257 12.0908C11.2 12.0627 10.7612 12.0636 10.3404 12.0944L10.2177 12.1046L10.1606 12.1091L10.0173 12.122C9.88569 12.1358 9.75494 12.1542 9.62418 12.1751L9.58578 12.1805C9.49655 12.1952 9.40725 12.2117 9.31934 12.2282C9.22164 12.2457 9.12519 12.2648 9.02881 12.2858C8.8423 12.3277 8.65703 12.3755 8.47767 12.4277C8.33484 12.4688 8.19387 12.5138 8.06131 12.5594L7.96938 12.5925C7.68822 12.692 7.40886 12.8062 7.1384 12.9316L7.06611 12.966L7.06479 12.9678C3.90205 14.4815 1.86255 17.7068 1.86255 21.2065C1.86255 21.2868 1.8679 21.3657 1.87283 21.4452L1.8965 22.0003H20.1026L20.1271 21.4514C20.1324 21.3702 20.1373 21.2894 20.1373 21.2065C20.1373 17.651 18.0483 14.3972 14.812 12.9075ZM2.7554 21.1078C2.7938 17.9656 4.65164 15.0831 7.48323 13.7554L7.57427 13.7197L7.58496 13.7094C7.80675 13.6081 8.03569 13.5158 8.26776 13.4341L8.34136 13.4078C8.46767 13.3641 8.5935 13.3239 8.72425 13.2868C8.88715 13.2391 9.05318 13.1962 9.21963 13.1588C9.30573 13.1405 9.39191 13.1231 9.48072 13.1066C9.5512 13.0937 9.62127 13.0803 9.69223 13.0691L9.72702 13.0628C9.85465 13.0428 9.98277 13.0244 10.1104 13.0106L10.4022 12.9852C10.7842 12.9571 11.1498 12.953 11.5924 12.9852L11.8762 13.0089C11.9463 13.0169 12.0164 13.0263 12.1016 13.0383L12.2038 13.053C12.3105 13.0687 12.4172 13.0869 12.5242 13.1071L12.5742 13.1164C12.6345 13.1276 12.6943 13.1392 12.751 13.1512C12.9268 13.1896 13.0995 13.2351 13.2708 13.2847C13.3842 13.3177 13.4967 13.3516 13.6064 13.3882C13.7457 13.4346 13.8832 13.4851 14.0193 13.539C14.15 13.5904 14.279 13.6453 14.4066 13.7038L14.4289 13.714C17.3248 15.0426 19.2053 17.9345 19.2437 21.107H2.7554V21.1078ZM8.79397 10.9439C8.86091 10.972 8.93007 10.9965 8.99923 11.0211L9.14429 11.0737C9.20005 11.0951 9.25629 11.1162 9.31344 11.134C9.84542 11.3014 10.4019 11.3875 10.9678 11.392L11.0128 11.3929C11.207 11.3929 11.4015 11.3826 11.5881 11.3634C11.6523 11.3572 11.7148 11.3469 11.7777 11.3362L11.9174 11.3153C11.9959 11.305 12.0745 11.2934 12.1566 11.2773C12.2129 11.2657 12.2673 11.251 12.3218 11.2363L12.4744 11.1975C12.5498 11.1792 12.6252 11.1609 12.6998 11.1377C12.7462 11.123 12.7917 11.106 12.8368 11.089L12.9595 11.0449C13.047 11.0145 13.1353 10.9833 13.2237 10.9463C13.2581 10.9315 13.2915 10.9155 13.3245 10.8994L13.3642 10.8797C13.4852 10.8257 13.6057 10.7704 13.7253 10.7061L13.8029 10.6598C13.9368 10.5839 14.0702 10.5053 14.2054 10.413C14.2755 10.3657 14.3424 10.3126 14.4085 10.2599L14.637 10.0823C15.9509 8.99474 16.7059 7.39882 16.7059 5.7436L16.7086 5.69631C16.7086 2.55543 14.1533 0.000488281 11.0124 0.000488281C8.01437 0.000488281 5.52012 2.34476 5.33402 5.33751L5.32909 5.41161C5.32194 5.50577 5.31618 5.59993 5.31618 5.69631C5.31527 7.99044 6.68045 10.05 8.79397 10.9439ZM6.21895 5.47348L6.2243 5.39314C6.38137 2.86944 8.4842 0.892921 11.0119 0.892921C13.661 0.892921 15.8156 3.04755 15.8179 5.65555L15.8152 5.70242C15.8134 7.13141 15.1761 8.47693 14.0627 9.40117L13.8507 9.56275C13.8034 9.60115 13.7556 9.63948 13.6962 9.68059C13.5892 9.75336 13.4758 9.81891 13.3606 9.88412L13.2968 9.92293C13.2004 9.97473 13.0991 10.0206 12.9938 10.0675L12.8755 10.1247C12.8077 10.1528 12.7363 10.1773 12.6658 10.2019L12.5185 10.255C12.4899 10.2657 12.4609 10.2773 12.4328 10.2858C12.3779 10.3027 12.3217 10.3157 12.2659 10.3295L12.0878 10.375C12.0494 10.3853 12.0115 10.396 11.9776 10.4032C11.9182 10.4148 11.8576 10.4228 11.7973 10.4313L11.6278 10.4567C11.5867 10.4639 11.5456 10.471 11.4997 10.4755C11.3511 10.4911 11.2016 10.4996 11.0498 10.5009L11.0079 10.5005H11.007C10.5184 10.5 10.0386 10.4273 9.57981 10.2836C9.54009 10.2711 9.50127 10.2555 9.46246 10.2408L9.29469 10.1796C9.24247 10.1613 9.19074 10.1435 9.14075 10.1225C7.35922 9.36902 6.20777 7.63116 6.20777 5.69658C6.20777 5.62117 6.21361 5.54708 6.21895 5.47348Z" fill="#4EB200"/>
</g>
<defs>
<clipPath id="clip0">
<rect width="22" height="22" fill="white"/>
</clipPath>
</defs>
</svg>
