<svg width="22" height="22" viewBox="0 0 22 22" fill="none" xmlns="http://www.w3.org/2000/svg">
<path d="M13.4445 5.13335C13.4445 3.92005 12.3481 2.93335 11 2.93335C9.65193 2.93335 8.55559 3.92005 8.55559 5.13335V5.50002C8.55559 5.70278 8.73811 5.86668 8.963 5.86668C9.18789 5.86668 9.37041 5.70278 9.37041 5.50002V5.13335C9.37041 4.32448 10.1013 3.66668 11 3.66668C11.8988 3.66668 12.6297 4.32448 12.6297 5.13335V7.70002H6.51855V14.6667H15.4815V7.70002H13.4445V5.13335ZM14.6667 13.9333H7.33337V8.43335H14.6667V13.9333Z" fill="#5E55E6"/>
<path d="M11 9.1665C10.1012 9.1665 9.37036 9.8243 9.37036 10.6332C9.37036 11.3148 9.89184 11.8839 10.5926 12.0478V12.8332C10.5926 13.0359 10.7751 13.1998 11 13.1998C11.2249 13.1998 11.4074 13.0359 11.4074 12.8332V12.0478C12.1081 11.8839 12.6296 11.3148 12.6296 10.6332C12.6296 9.8243 11.8987 9.1665 11 9.1665ZM11 11.3665C10.5506 11.3665 10.1852 11.0376 10.1852 10.6332C10.1852 10.2287 10.5506 9.89984 11 9.89984C11.4494 9.89984 11.8148 10.2287 11.8148 10.6332C11.8148 11.0376 11.4494 11.3665 11 11.3665Z" fill="#5E55E6"/>
<path d="M11 0C4.93452 0 0 4.44107 0 9.9C0 15.0733 4.433 19.3303 10.0593 19.7615L8.26752 21.3741C8.10822 21.5175 8.10822 21.7492 8.26752 21.8926C8.34696 21.9641 8.45126 22 8.55556 22C8.65985 22 8.76415 21.9641 8.84359 21.8926L11.2876 19.6929C11.3255 19.6592 11.3553 19.6185 11.376 19.5734C11.4172 19.4839 11.4172 19.3827 11.376 19.2933C11.3553 19.2482 11.3255 19.2078 11.2876 19.1737L8.84359 16.9741C8.6843 16.8307 8.42681 16.8307 8.26752 16.9741C8.10822 17.1175 8.10822 17.3492 8.26752 17.4926L9.96396 19.0194C4.83267 18.5508 0.814815 14.6399 0.814815 9.9C0.814815 4.8455 5.38389 0.733333 11 0.733333C16.6161 0.733333 21.1852 4.8455 21.1852 9.9C21.1852 12.3321 20.1381 14.623 18.2364 16.3508C18.0779 16.4949 18.0791 16.727 18.2392 16.8696C18.3989 17.0115 18.6568 17.0108 18.8153 16.867C20.869 15.0007 22 12.5264 22 9.9C22 4.44107 17.0655 0 11 0Z" fill="#5E55E6"/>
</svg>
