<svg width="30" height="30" viewBox="0 0 30 30" fill="none" xmlns="http://www.w3.org/2000/svg">
<circle cx="15" cy="15" r="15" fill="#7C73FF"/>
<g clip-path="url(#clip0)">
<path d="M22.345 8.97649C21.6681 8.61202 20.9131 9.31493 20.4705 9.73147C19.4553 10.7207 18.5962 11.8662 17.6329 12.9076C16.5655 14.0531 15.5762 15.1985 14.4828 16.318C13.858 16.9428 13.1811 17.6197 12.7646 18.4007C11.8274 17.4895 11.0203 16.5002 9.97896 15.6932C9.22398 15.1205 7.97437 14.7039 8.0004 16.0837C8.05247 17.8801 9.64052 19.8066 10.812 21.0301C11.3067 21.5508 11.9575 22.0975 12.7125 22.1235C13.6237 22.1756 14.5609 21.0822 15.1076 20.4834C16.0709 19.4421 16.8519 18.2705 17.737 17.2032C18.8825 15.7974 20.054 14.4175 21.1734 12.9857C21.8764 12.1005 24.0892 9.91366 22.345 8.97649ZM9.14584 15.9796C9.11981 15.9796 9.09377 15.9796 9.04171 16.0056C8.93757 15.9796 8.85947 15.9535 8.75533 15.9015C8.83344 15.8494 8.9636 15.8754 9.14584 15.9796Z" fill="white"/>
</g>
<defs>
<clipPath id="clip0">
<rect width="15" height="15" fill="white" transform="translate(8 8)"/>
</clipPath>
</defs>
</svg>
