<?xml version="1.0" encoding="utf-8"?>
<!-- Generator: Adobe Illustrator 17.0.0, SVG Export Plug-In . SVG Version: 6.00 Build 0)  -->
<!DOCTYPE svg PUBLIC "-//W3C//DTD SVG 1.1//EN" "http://www.w3.org/Graphics/SVG/1.1/DTD/svg11.dtd">
<svg version="1.1" id="Layer_1" xmlns="http://www.w3.org/2000/svg" xmlns:xlink="http://www.w3.org/1999/xlink" x="0px" y="0px"
	 width="25px" height="25px" viewBox="0 0 25 25" enable-background="new 0 0 25 25" xml:space="preserve">
<g>
	<g>
		<g>
			<path fill="#C4C4C4" d="M21.567,9.564c-5.016-5.016-13.176-5.016-18.193,0l-3.351,3.349l3.433,3.433
				c2.508,2.508,5.802,3.761,9.096,3.761s6.589-1.254,9.096-3.761L25,12.997L21.567,9.564z M21.054,15.75
				c-4.687,4.687-12.312,4.687-16.999,0l-2.839-2.837l2.754-2.754c4.687-4.687,12.312-4.687,17,0l2.837,2.837L21.054,15.75z"/>
			<path fill="#C4C4C4" d="M12.078,9.567c-1.628,0-2.953,1.325-2.953,2.953c0,0.232,0.189,0.422,0.422,0.422
				c0.234,0,0.422-0.189,0.422-0.422c0-1.163,0.947-2.109,2.109-2.109c0.232,0,0.422-0.189,0.422-0.422
				C12.501,9.756,12.312,9.567,12.078,9.567z"/>
			<path fill="#C4C4C4" d="M12.501,7.458c-3.025,0-5.485,2.46-5.485,5.485s2.46,5.485,5.485,5.485s5.485-2.46,5.485-5.485
				C17.984,9.918,15.525,7.458,12.501,7.458z M12.501,17.584c-2.559,0-4.641-2.082-4.641-4.641s2.082-4.641,4.641-4.641
				s4.641,2.082,4.641,4.641C17.141,15.501,15.059,17.584,12.501,17.584z"/>
		</g>
	</g>
	
		<rect x="4.437" y="12.167" transform="matrix(-0.8443 -0.5358 0.5358 -0.8443 17.0579 30.1638)" fill="#C4C4C4" width="16.947" height="0.874"/>
</g>
</svg>
