<?xml version="1.0" standalone="no"?>
<!DOCTYPE svg PUBLIC "-//W3C//DTD SVG 20010904//EN"
 "http://www.w3.org/TR/2001/REC-SVG-20010904/DTD/svg10.dtd">
<svg version="1.0" xmlns="http://www.w3.org/2000/svg"
 width="160.000000pt" height="160.000000pt" viewBox="0 0 160.000000 160.000000"
 preserveAspectRatio="xMidYMid meet">
<metadata>
Created by potrace 1.16, written by Peter Selinger 2001-2019
</metadata>
<g transform="translate(0.000000,160.000000) scale(0.100000,-0.100000)"
fill="#000000" stroke="none">
<path d="M600 1521 c-106 -34 -231 -107 -306 -179 -75 -73 -152 -180 -180
-250 -16 -42 -16 -44 4 -64 36 -37 64 -19 102 68 26 61 49 92 114 157 45 45
107 97 140 116 135 80 339 103 507 58 113 -30 186 -74 281 -169 61 -61 86 -96
118 -162 36 -76 70 -179 70 -213 0 -7 -10 -13 -23 -13 -27 0 -47 -17 -47 -40
0 -9 22 -37 48 -63 60 -59 85 -61 135 -9 29 30 37 46 37 74 0 38 -14 51 -42
37 -13 -7 -17 -2 -23 34 -31 187 -107 328 -248 456 -75 68 -208 140 -304 165
-87 23 -309 21 -383 -3z"/>
<path d="M652 1306 c-76 -25 -178 -93 -241 -162 -139 -152 -171 -379 -81 -578
54 -122 198 -242 334 -281 43 -13 86 -16 165 -13 99 3 111 6 186 43 60 29 99
58 156 115 66 67 80 87 109 161 39 99 51 225 30 318 -35 155 -146 294 -294
367 -78 38 -83 39 -200 41 -82 2 -135 -2 -164 -11z m328 -103 c176 -85 269
-242 258 -435 -8 -139 -66 -249 -173 -330 -86 -65 -144 -83 -270 -83 -104 0
-114 2 -176 32 -165 81 -259 229 -259 407 0 197 113 357 301 427 44 16 73 19
154 16 88 -3 108 -7 165 -34z"/>
<path d="M702 1078 c-6 -6 -12 -22 -12 -35 0 -21 -4 -23 -59 -23 -63 0 -97
-19 -87 -47 3 -8 6 -16 6 -18 0 -2 16 -7 35 -11 l35 -6 0 -144 0 -144 -24 0
c-24 0 -56 -23 -56 -40 0 -25 34 -40 90 -40 56 0 59 -1 62 -26 6 -55 68 -59
68 -4 0 28 2 30 40 30 33 0 40 -3 40 -19 0 -32 11 -51 29 -51 23 0 41 20 41
46 0 17 9 24 44 33 85 21 122 97 87 177 -18 40 -19 49 -7 63 55 64 3 179 -89
197 -27 5 -35 11 -37 31 -6 55 -68 57 -68 3 0 -28 -2 -30 -39 -30 -37 0 -40 2
-43 33 -3 35 -33 48 -56 25z m273 -162 c18 -27 7 -69 -20 -80 -9 -3 -73 -6
-141 -6 l-124 0 0 55 0 55 135 0 c130 0 135 -1 150 -24z m-20 -162 c27 -11 38
-53 20 -80 -15 -23 -20 -24 -150 -24 l-135 0 0 55 0 55 124 0 c68 0 132 -3
141 -6z"/>
<path d="M37 832 c-30 -30 -37 -45 -37 -76 0 -37 1 -38 29 -34 28 4 30 2 36
-36 30 -186 108 -328 248 -455 75 -68 208 -140 304 -165 82 -22 284 -21 367 0
100 26 242 106 316 177 36 35 72 72 80 83 41 53 91 134 106 172 16 40 15 44
-1 62 -38 42 -63 24 -114 -83 -40 -82 -156 -204 -245 -256 -131 -78 -324 -101
-496 -61 -114 27 -195 75 -292 172 -61 61 -86 96 -118 162 -55 116 -86 234
-57 223 6 -2 22 -1 35 4 36 14 28 49 -26 102 -60 59 -85 61 -135 9z"/>
</g>
</svg>
