<?xml version="1.0" standalone="no"?>
<!DOCTYPE svg PUBLIC "-//W3C//DTD SVG 20010904//EN"
 "http://www.w3.org/TR/2001/REC-SVG-20010904/DTD/svg10.dtd">
<svg version="1.0" xmlns="http://www.w3.org/2000/svg"
 width="160.000000pt" height="160.000000pt" viewBox="0 0 160.000000 160.000000"
 preserveAspectRatio="xMidYMid meet">
<metadata>
Created by potrace 1.16, written by Peter Selinger 2001-2019
</metadata>
<g transform="translate(0.000000,160.000000) scale(0.100000,-0.100000)"
fill="#000000" stroke="none">
<path d="M712 1580 c-49 -30 -72 -75 -72 -141 0 -67 26 -113 83 -142 l37 -19
0 -119 c0 -90 -3 -119 -13 -119 -7 0 -29 -8 -49 -19 l-36 -18 -95 96 -95 96 5
70 c4 62 2 74 -19 104 -65 94 -212 95 -276 1 -29 -44 -31 -131 -2 -178 34 -56
74 -74 155 -69 l70 4 96 -94 96 -95 -18 -38 c-11 -22 -19 -44 -19 -50 0 -6
-42 -10 -118 -10 l-117 0 -20 36 c-30 56 -79 84 -145 84 -100 0 -160 -60 -160
-160 0 -101 60 -160 161 -160 67 0 113 26 142 83 l19 37 119 0 c90 0 119 -3
119 -13 0 -7 8 -29 19 -49 l18 -36 -94 -94 -93 -93 -78 0 c-65 0 -82 -4 -110
-23 -43 -31 -64 -75 -64 -132 0 -97 65 -162 162 -162 60 0 104 23 136 72 24
35 26 47 21 107 l-4 68 94 96 95 96 38 -18 c22 -11 44 -19 50 -19 6 0 10 -42
10 -118 l0 -117 -36 -20 c-109 -58 -115 -222 -12 -285 45 -27 131 -27 176 0
103 63 96 233 -12 284 l-36 17 0 119 c0 91 3 120 13 120 7 0 29 8 49 19 l36
18 95 -96 95 -96 -4 -70 c-4 -58 -2 -75 15 -102 88 -139 303 -78 303 86 0 58
-21 102 -64 133 -28 19 -45 23 -110 23 l-78 0 -93 93 -94 94 18 38 c11 22 19
44 19 50 0 6 42 10 118 10 l117 -1 26 -42 c31 -51 79 -77 144 -77 94 0 155 63
155 160 0 100 -60 160 -160 160 -67 0 -118 -30 -144 -84 l-17 -36 -119 0 c-91
0 -120 3 -120 13 0 7 -8 29 -19 49 l-18 36 96 96 96 95 62 -6 c73 -7 112 6
148 49 92 109 18 270 -125 270 -57 0 -101 -21 -132 -64 -19 -28 -23 -46 -24
-111 l0 -78 -93 -93 -93 -93 -38 18 c-22 11 -44 19 -50 19 -6 0 -10 42 -10
118 l0 117 36 20 c109 58 115 222 12 285 -45 27 -131 27 -176 0z m143 -85 c16
-15 25 -36 25 -55 0 -19 -9 -40 -25 -55 -15 -16 -36 -25 -55 -25 -19 0 -40 9
-55 25 -16 15 -25 36 -25 55 0 19 9 40 25 55 15 16 36 25 55 25 19 0 40 -9 55
-25z m-480 -160 c50 -49 15 -135 -55 -135 -41 0 -80 39 -80 80 0 41 39 80 80
80 19 0 40 -9 55 -25z m960 0 c16 -15 25 -36 25 -55 0 -19 -9 -40 -25 -55 -15
-16 -36 -25 -55 -25 -19 0 -40 9 -55 25 -16 15 -25 36 -25 55 0 19 9 40 25 55
15 16 36 25 55 25 19 0 40 -9 55 -25z m-447 -402 c99 -73 96 -201 -7 -270
-132 -89 -307 86 -218 218 39 58 84 81 145 77 32 -3 64 -13 80 -25z m-673 -78
c50 -49 15 -135 -55 -135 -41 0 -80 39 -80 80 0 70 86 105 135 55z m1280 0
c50 -49 15 -135 -55 -135 -19 0 -40 9 -55 25 -16 15 -25 36 -25 55 0 19 9 40
25 55 15 16 36 25 55 25 19 0 40 -9 55 -25z m-1120 -480 c50 -49 15 -135 -55
-135 -41 0 -80 39 -80 80 0 41 39 80 80 80 19 0 40 -9 55 -25z m960 0 c50 -49
15 -135 -55 -135 -41 0 -80 39 -80 80 0 41 39 80 80 80 19 0 40 -9 55 -25z
m-480 -160 c50 -49 15 -135 -55 -135 -41 0 -80 39 -80 80 0 41 39 80 80 80 19
0 40 -9 55 -25z"/>
</g>
</svg>
