<?xml version="1.0" standalone="no"?>
<!DOCTYPE svg PUBLIC "-//W3C//DTD SVG 20010904//EN"
 "http://www.w3.org/TR/2001/REC-SVG-20010904/DTD/svg10.dtd">
<svg version="1.0" xmlns="http://www.w3.org/2000/svg"
 width="160.000000pt" height="160.000000pt" viewBox="0 0 160.000000 160.000000"
 preserveAspectRatio="xMidYMid meet">
<metadata>
Created by potrace 1.16, written by Peter Selinger 2001-2019
</metadata>
<g transform="translate(0.000000,160.000000) scale(0.100000,-0.100000)"
fill="#000000" stroke="none">
<path d="M1102 1378 c-17 -17 -17 -339 0 -356 18 -18 56 -14 68 7 5 11 10 86
10 171 0 85 -5 160 -10 171 -12 21 -50 25 -68 7z"/>
<path d="M320 1231 c-136 -43 -258 -161 -303 -295 -24 -70 -23 -216 2 -287 25
-73 51 -114 113 -177 129 -131 331 -164 501 -83 76 36 175 135 206 206 l20 45
182 0 183 0 28 27 28 27 28 -27 c35 -33 53 -34 89 -3 l28 24 28 -24 c43 -36
61 -31 106 33 55 76 55 117 2 193 l-38 55 -331 3 -332 2 -26 51 c-49 98 -147
184 -251 220 -59 20 -211 26 -263 10z m260 -94 c68 -25 156 -111 188 -182 12
-27 26 -57 31 -65 7 -13 58 -15 344 -18 l336 -2 25 -37 c24 -35 25 -37 8 -65
l-16 -28 -26 25 c-33 32 -57 32 -92 -2 l-28 -27 -28 27 c-37 35 -51 34 -92 -8
l-34 -35 -194 -2 c-161 -3 -196 -6 -203 -18 -4 -8 -20 -41 -35 -73 -30 -63
-99 -134 -160 -165 -148 -74 -319 -41 -433 83 -137 150 -127 382 21 521 106
99 245 125 388 71z"/>
<path d="M219 917 c-117 -78 -75 -253 63 -265 44 -3 59 0 88 20 49 33 72 82
66 136 -14 111 -129 168 -217 109z"/>
<path d="M807 1234 c-11 -11 -8 -49 5 -62 7 -7 38 -12 70 -12 l58 0 0 -59 c0
-63 15 -91 49 -91 35 0 42 24 39 126 l-3 99 -106 3 c-58 1 -108 -1 -112 -4z"/>
<path d="M1241 1221 c-6 -11 -11 -56 -11 -100 0 -83 12 -111 49 -111 30 0 41
22 41 87 l0 62 66 3 c74 3 99 21 78 56 -9 14 -29 17 -112 20 -92 2 -102 1
-111 -17z"/>
<path d="M957 562 c-12 -13 -17 -37 -17 -75 l0 -57 -58 0 c-63 0 -82 -11 -82
-47 0 -32 28 -43 115 -43 114 0 115 1 115 120 0 88 -2 100 -19 110 -27 14 -35
13 -54 -8z"/>
<path d="M1107 567 c-16 -11 -17 -31 -15 -187 l3 -175 30 -3 c49 -6 55 13 55
189 0 130 -3 160 -16 173 -19 19 -35 20 -57 3z"/>
<path d="M1247 562 c-13 -14 -17 -38 -17 -100 0 -112 10 -122 123 -122 69 0
87 3 100 18 40 44 13 72 -70 72 l-63 0 0 63 c0 36 -5 68 -12 75 -17 17 -42 15
-61 -6z"/>
</g>
</svg>
