<svg width="100" height="100" viewBox="0 0 100 100" fill="none" xmlns="http://www.w3.org/2000/svg">
<circle cx="50" cy="50" r="50" fill="#ECECEC"/>
<circle cx="50" cy="50" r="41" fill="url(#paint0_linear)"/>
<g clip-path="url(#clip0)">
<path d="M65.5902 47.4489C65.5849 47.4462 65.5796 47.4429 65.5742 47.4395L41.5061 33.4346C40.5715 32.8716 39.4468 32.8543 38.4949 33.3901C37.541 33.9272 36.9707 34.9017 36.9707 35.9971V64.0031C36.9707 65.0985 37.541 66.073 38.4949 66.6101C39.4248 67.1333 40.5496 67.1412 41.5054 66.5656C41.5054 66.5656 65.5849 52.5666 65.5902 52.5633C66.4909 52.0162 67.0293 51.0603 67.0293 50.0061C67.0293 48.9518 66.4909 47.9959 65.5902 47.4489ZM57.4793 45.0367L53.9436 48.5882L40.6885 35.2666L57.4793 45.0367ZM38.9649 63.6334V36.3614L52.5364 50.0014L38.9649 63.6334ZM40.6772 64.7403L53.943 51.4153L57.4806 54.9709L40.6772 64.7403ZM64.5625 50.8542L59.2627 53.9352L55.3502 50.002L59.2614 46.0735L64.5619 49.1578C64.9886 49.4211 65.0352 49.8385 65.0352 50.006C65.0352 50.1735 64.9886 50.591 64.5625 50.8542Z" fill="white"/>
</g>
<defs>
<linearGradient id="paint0_linear" x1="50" y1="9" x2="50" y2="91" gradientUnits="userSpaceOnUse">
<stop stop-color="#FE8B65"/>
<stop offset="1" stop-color="#FE5E04"/>
</linearGradient>
<clipPath id="clip0">
<rect width="34" height="34" fill="white" transform="translate(35 33)"/>
</clipPath>
</defs>
</svg>
