<svg width="100" height="100" viewBox="0 0 100 100" fill="none" xmlns="http://www.w3.org/2000/svg">
<circle cx="50" cy="50" r="50" fill="#ECECEC"/>
<circle cx="50" cy="50" r="41" fill="url(#paint0_linear)"/>
<path d="M40.7796 63.3594C40.346 64.1181 39.5565 64.5426 38.7459 64.5427C38.3485 64.5427 37.9461 64.4407 37.5779 64.226C36.4588 63.5734 36.0739 62.1226 36.72 60.9921L37.181 60.1856H42.5937L40.7796 63.3594ZM36.3594 58.2916C35.067 58.2916 34.0156 57.2296 34.0156 55.9242C34.0156 54.6187 35.067 53.5567 36.3594 53.5567H40.9698L47.2936 42.4926L45.5798 39.4941C44.9337 38.3636 45.3184 36.9128 46.4376 36.26C47.5568 35.6074 48.9931 35.9962 49.6392 37.1266L50 37.7578L50.3607 37.1267C51.0072 35.9961 52.4434 35.6075 53.5623 36.2601C54.1045 36.5763 54.4923 37.0868 54.6543 37.6976C54.8164 38.3085 54.7332 38.9465 54.4201 39.4942L46.3825 53.5567H51.4524L54.1587 58.2916H36.3594ZM63.6406 58.2916H61.7365L63.2799 60.992C63.9261 62.1224 63.5412 63.5732 62.4222 64.2259C62.0609 64.4365 61.6601 64.5442 61.2539 64.5442C61.0503 64.5442 60.8456 64.5172 60.6435 64.4625C60.0387 64.2988 59.5333 63.907 59.2203 63.3592L51.0824 49.1215L53.7887 44.3865L59.0302 53.5567H63.6406C64.933 53.5567 65.9844 54.6187 65.9844 55.9242C65.9844 57.2296 64.933 58.2916 63.6406 58.2916Z" fill="white"/>
<defs>
<linearGradient id="paint0_linear" x1="50" y1="9" x2="50" y2="91" gradientUnits="userSpaceOnUse">
<stop stop-color="#1CA9EE"/>
<stop offset="1" stop-color="#1689EB"/>
</linearGradient>
</defs>
</svg>
