<?xml version="1.0" encoding="utf-8"?>
<!-- Generator: Adobe Illustrator 17.0.0, SVG Export Plug-In . SVG Version: 6.00 Build 0)  -->
<!DOCTYPE svg PUBLIC "-//W3C//DTD SVG 1.1//EN" "http://www.w3.org/Graphics/SVG/1.1/DTD/svg11.dtd">
<svg version="1.1" id="Layer_1" xmlns="http://www.w3.org/2000/svg" xmlns:xlink="http://www.w3.org/1999/xlink" x="0px" y="0px"
	 width="200px" height="48.063px" viewBox="0 0 200 48.063" enable-background="new 0 0 200 48.063" xml:space="preserve">
<path fill="#FFFFFF" d="M31.631,33.062c-0.054-0.101-0.119-0.198-0.191-0.285c-0.074-0.091-0.157-0.173-0.245-0.244
	c-0.09-0.073-0.185-0.137-0.284-0.189c-0.101-0.054-0.207-0.098-0.324-0.134c-0.106-0.03-0.219-0.054-0.331-0.066
	c-0.115-0.012-0.243-0.012-0.342-0.001c-0.111,0.01-0.223,0.031-0.34,0.064c-0.108,0.032-0.213,0.074-0.315,0.125
	c-0.207,0.107-0.388,0.251-0.537,0.428c-0.073,0.087-0.138,0.182-0.192,0.28c-0.055,0.099-0.101,0.205-0.136,0.312
	c-0.034,0.106-0.058,0.219-0.073,0.344c-0.011,0.112-0.011,0.226-0.001,0.339c0.011,0.115,0.033,0.228,0.066,0.337
	c0.032,0.105,0.074,0.21,0.13,0.316c0.054,0.102,0.118,0.198,0.191,0.286c0.072,0.088,0.154,0.169,0.246,0.244
	c0.087,0.07,0.181,0.133,0.285,0.189c0.103,0.054,0.209,0.098,0.307,0.128c0.109,0.035,0.225,0.059,0.343,0.071
	c0.061,0.007,0.123,0.01,0.185,0.01c0.054,0,0.107-0.003,0.162-0.007c0.115-0.011,0.229-0.032,0.336-0.064
	c0.105-0.03,0.212-0.073,0.318-0.126c0.101-0.051,0.198-0.115,0.291-0.188c0.089-0.071,0.172-0.152,0.25-0.243
	c0.072-0.087,0.136-0.18,0.193-0.282c0.054-0.1,0.098-0.205,0.132-0.312c0.037-0.118,0.06-0.23,0.07-0.334
	c0.013-0.114,0.014-0.23,0.003-0.345c-0.01-0.113-0.032-0.225-0.065-0.337C31.729,33.272,31.685,33.167,31.631,33.062z
	 M33.604,16.726c-0.492,0-0.973,0.168-1.355,0.472c-0.45,0.358-0.73,0.868-0.79,1.436c-0.06,0.565,0.107,1.119,0.469,1.56
	c0.412,0.5,1.023,0.787,1.679,0.787c0.491,0,0.973-0.168,1.355-0.472c0.45-0.358,0.73-0.868,0.79-1.436
	c0.06-0.565-0.107-1.119-0.47-1.56C34.872,17.013,34.26,16.726,33.604,16.726z M34.28,18.922c-0.019,0.176-0.106,0.335-0.246,0.447
	c-0.282,0.224-0.728,0.178-0.956-0.099c-0.112-0.137-0.164-0.309-0.145-0.484c0.019-0.176,0.106-0.335,0.246-0.447
	c0.122-0.097,0.269-0.148,0.426-0.148c0.207,0,0.399,0.09,0.529,0.247C34.246,18.574,34.298,18.746,34.28,18.922z M45.627,23.422
	l-4.806-5.846l-5.283,4.208c-0.634,0.505-1.433,0.783-2.25,0.783c-1.089,0-2.105-0.475-2.786-1.304
	c-0.597-0.726-0.872-1.639-0.774-2.57c0.098-0.936,0.561-1.777,1.303-2.368l5.293-4.217l-5.631-6.85
	c-0.528-0.643-1.314-1.012-2.156-1.012c-0.553,0-1.096,0.166-1.552,0.469l-3.513-3.837c-0.48-0.527-1.141-0.837-1.858-0.874
	c-0.719-0.04-1.41,0.206-1.94,0.676L2.283,21.372c-0.912,1.068-1.064,2.366-0.432,3.357c-0.874,0.716-1.42,1.724-1.538,2.843
	c-0.119,1.135,0.215,2.246,0.942,3.13l12.974,15.78c0.825,1.004,2.053,1.58,3.368,1.58c0.986,0,1.951-0.337,2.718-0.947l3.454-2.752
	c1.118,0.914,2.522,1.413,3.994,1.413c1.423,0,2.817-0.485,3.923-1.367c1.781-1.42,2.631-3.718,2.214-5.927
	c0.007-0.006,0.014-0.011,0.021-0.017c1.259-1.003,2.059-2.417,2.266-3.996l9.029-7.194c0.578-0.46,0.939-1.116,1.016-1.847
	C46.308,24.702,46.093,23.989,45.627,23.422z M21.342,2.488c0.038-0.027,0.083-0.041,0.132-0.041V2.003h0l0.012,0.444
	c0.061,0.003,0.115,0.028,0.156,0.073l3.41,3.724L4.282,22.792L21.342,2.488z M30.137,42.504c-0.67,0.534-1.514,0.828-2.378,0.828
	c-1.151,0-2.225-0.503-2.946-1.379c-1.159-1.41-1.105-3.401,0.059-4.742l0.083,0.115c0.057,0.077,0.116,0.153,0.177,0.227
	c0.063,0.077,0.128,0.152,0.189,0.219l0.056,0.061l0.322-0.309l0,0l-0.291,0.342l0.541,0.509c0.046,0.039,0.092,0.077,0.139,0.114
	l0.082,0.063c0.049,0.037,0.098,0.074,0.146,0.108l0.083,0.058c0.053,0.037,0.106,0.073,0.155,0.105l0.073,0.046l0.253-0.368
	l-0.197,0.402l0.116,0.071c0.08,0.046,0.16,0.091,0.259,0.142c0.082,0.044,0.167,0.085,0.274,0.135
	c0.056,0.026,0.112,0.051,0.178,0.078l0.086,0.037c0.412,0.168,0.839,0.292,1.271,0.37c0.833,0.15,1.705,0.129,2.53-0.059
	l0.055-0.012c0.027-0.007,0.055-0.014,0.083-0.02C31.525,40.743,31.015,41.805,30.137,42.504z M33.75,34.057
	c-0.105,0.99-0.594,1.879-1.378,2.504c-0.167,0.133-0.35,0.254-0.545,0.361c-0.034,0.019-0.069,0.038-0.106,0.056
	c-0.53,0.268-1.127,0.41-1.727,0.41c-0.946,0-1.85-0.341-2.554-0.97c-0.04-0.035-0.078-0.072-0.138-0.13l-0.133-0.14
	c-0.041-0.045-0.082-0.092-0.12-0.139c-0.038-0.047-0.074-0.094-0.107-0.137l-0.103-0.145l-0.384-0.735
	c-0.58-1.504-0.116-3.194,1.153-4.205c0.67-0.534,1.515-0.828,2.378-0.828c1.151,0,2.225,0.503,2.946,1.379
	C33.563,32.108,33.853,33.073,33.75,34.057z M43.667,25.371l-7.796,6.211c-0.235-0.646-0.578-1.244-1.023-1.786
	c-1.192-1.449-2.964-2.28-4.864-2.28c-1.424,0-2.818,0.486-3.925,1.367c-1.78,1.418-2.629,3.717-2.213,5.926
	c-0.007,0.006-0.015,0.012-0.022,0.017c-2.316,1.845-2.974,5.067-1.613,7.638l-0.21,0.167l-5.615-6.829
	c-0.412-0.502-1.222-0.588-1.733-0.181c-0.259,0.206-0.42,0.5-0.454,0.827c-0.034,0.326,0.062,0.645,0.271,0.898l5.606,6.819
	l-1.311,1.044c-0.335,0.267-0.74,0.408-1.171,0.408c-0.567,0-1.095-0.247-1.45-0.678L3.17,29.159
	c-0.31-0.377-0.452-0.85-0.401-1.332c0.051-0.486,0.291-0.922,0.676-1.229L28.347,6.758c0.069-0.055,0.143-0.067,0.193-0.067
	c0.094,0,0.181,0.04,0.238,0.11l4.063,4.942l-3.358,2.675c-1.258,1.002-2.044,2.43-2.211,4.02c-0.167,1.583,0.3,3.134,1.314,4.368
	c1.153,1.402,2.867,2.206,4.705,2.206c1.378,0,2.726-0.47,3.797-1.323l3.368-2.684l3.255,3.959c0.049,0.06,0.071,0.134,0.064,0.21
	C43.767,25.253,43.728,25.322,43.667,25.371z M14.333,33.303c-0.039-0.072-0.084-0.139-0.135-0.201
	c-0.053-0.064-0.112-0.123-0.172-0.172c-0.061-0.05-0.128-0.094-0.199-0.133c-0.071-0.038-0.146-0.069-0.227-0.094
	c-0.074-0.021-0.152-0.037-0.232-0.047c-0.081-0.008-0.171-0.008-0.238-0.001c-0.081,0.007-0.161,0.022-0.237,0.044
	c-0.078,0.023-0.153,0.053-0.223,0.088c-0.146,0.075-0.273,0.176-0.377,0.3c-0.053,0.062-0.098,0.129-0.134,0.195
	c-0.04,0.07-0.072,0.145-0.095,0.219c-0.025,0.075-0.042,0.155-0.052,0.243c-0.008,0.08-0.008,0.162,0,0.24
	c0.007,0.08,0.023,0.159,0.045,0.233c0.023,0.078,0.054,0.153,0.091,0.223c0.039,0.074,0.085,0.143,0.133,0.2
	c0.05,0.062,0.108,0.12,0.176,0.176c0.061,0.048,0.126,0.092,0.196,0.13c0.07,0.037,0.146,0.069,0.216,0.091
	c0.078,0.025,0.159,0.041,0.238,0.05c0.043,0.005,0.086,0.007,0.129,0.007c0.038,0,0.077-0.002,0.112-0.005
	c0.082-0.007,0.163-0.022,0.236-0.044c0.078-0.022,0.153-0.052,0.225-0.089c0.072-0.037,0.142-0.082,0.205-0.132
	c0.061-0.05,0.12-0.106,0.174-0.17c0.05-0.06,0.096-0.125,0.135-0.196c0.038-0.07,0.07-0.144,0.095-0.223
	c0.024-0.078,0.041-0.156,0.049-0.236c0.008-0.079,0.009-0.159,0.002-0.238c-0.007-0.079-0.022-0.159-0.046-0.239
	C14.401,33.449,14.37,33.374,14.333,33.303z"/>
<g>
	<g>
		<path fill="#FFFFFF" d="M74.399,27.977c-0.188,1.987-0.921,3.538-2.2,4.651c-1.28,1.113-2.981,1.67-5.105,1.67
			c-1.484,0-2.792-0.352-3.921-1.055c-1.131-0.703-2.003-1.703-2.617-3.001c-0.614-1.296-0.934-2.802-0.96-4.516v-1.74
			c0-1.757,0.311-3.305,0.934-4.645c0.622-1.339,1.516-2.371,2.68-3.096s2.51-1.088,4.036-1.088c2.056,0,3.711,0.557,4.965,1.67
			s1.983,2.689,2.188,4.728h-3.224c-0.154-1.339-0.544-2.305-1.171-2.898c-0.627-0.593-1.546-0.889-2.758-0.889
			c-1.407,0-2.488,0.514-3.243,1.543c-0.755,1.029-1.141,2.538-1.158,4.527v1.652c0,2.015,0.361,3.552,1.082,4.61
			c0.72,1.059,1.776,1.588,3.167,1.588c1.271,0,2.226-0.286,2.866-0.857c0.64-0.571,1.045-1.523,1.216-2.853H74.399z"/>
		<path fill="#FFFFFF" d="M84.238,23.038c-0.409-0.068-0.831-0.102-1.267-0.102c-1.425,0-2.384,0.546-2.879,1.638v9.468h-3.109
			V20.198h2.968l0.077,1.548c0.75-1.203,1.791-1.804,3.122-1.804c0.443,0,0.81,0.06,1.1,0.179L84.238,23.038z"/>
		<path fill="#FFFFFF" d="M91.276,29.589l2.815-9.391h3.314L91.903,36.14c-0.845,2.329-2.278,3.493-4.299,3.493
			c-0.452,0-0.951-0.078-1.497-0.232v-2.417l0.588,0.039c0.785,0,1.376-0.143,1.772-0.429c0.396-0.286,0.71-0.765,0.94-1.438
			l0.448-1.189l-4.862-13.769h3.353L91.276,29.589z"/>
		<path fill="#FFFFFF" d="M111.312,27.26c0,2.141-0.486,3.85-1.459,5.124c-0.972,1.275-2.278,1.913-3.915,1.913
			c-1.518,0-2.734-0.499-3.646-1.497v6.564h-3.109V20.198h2.866l0.128,1.407c0.913-1.109,2.154-1.663,3.723-1.663
			c1.689,0,3.013,0.629,3.973,1.887c0.96,1.258,1.44,3.005,1.44,5.24V27.26z M108.216,26.992c0-1.382-0.275-2.478-0.825-3.289
			c-0.551-0.81-1.337-1.215-2.361-1.215c-1.271,0-2.184,0.525-2.738,1.574v6.141c0.563,1.075,1.484,1.612,2.764,1.612
			c0.989,0,1.763-0.399,2.322-1.196C107.937,29.822,108.216,28.612,108.216,26.992z"/>
		<path fill="#FFFFFF" d="M117.837,16.833v3.365h2.444v2.303h-2.444v7.728c0,0.529,0.104,0.91,0.314,1.145
			c0.209,0.235,0.582,0.352,1.119,0.352c0.358,0,0.72-0.043,1.088-0.128v2.406c-0.708,0.196-1.391,0.294-2.047,0.294
			c-2.389,0-3.583-1.318-3.583-3.953v-7.843h-2.278v-2.303h2.278v-3.365H117.837z"/>
		<path fill="#FFFFFF" d="M144.092,29.436l2.866-14.023h3.211l-4.299,18.629h-3.096l-3.544-13.601l-3.621,13.601H132.5
			l-4.299-18.629h3.211l2.892,13.998l3.557-13.998h2.713L144.092,29.436z"/>
		<path fill="#FFFFFF" d="M160.085,34.042c-0.136-0.264-0.256-0.695-0.358-1.292c-0.99,1.032-2.201,1.548-3.634,1.548
			c-1.39,0-2.525-0.396-3.404-1.19c-0.879-0.793-1.318-1.774-1.318-2.943c0-1.476,0.548-2.608,1.644-3.397
			c1.096-0.789,2.663-1.184,4.702-1.184h1.906v-0.909c0-0.716-0.201-1.29-0.602-1.721c-0.401-0.431-1.011-0.646-1.83-0.646
			c-0.708,0-1.288,0.177-1.74,0.531c-0.452,0.354-0.678,0.804-0.678,1.35h-3.109c0-0.759,0.252-1.469,0.755-2.13
			c0.504-0.661,1.188-1.179,2.054-1.555c0.866-0.375,1.832-0.563,2.898-0.563c1.62,0,2.913,0.407,3.877,1.222
			c0.964,0.815,1.459,1.96,1.484,3.435v6.244c0,1.245,0.175,2.239,0.524,2.981v0.217H160.085z M156.669,31.803
			c0.614,0,1.192-0.149,1.734-0.448c0.542-0.298,0.949-0.7,1.222-1.203v-2.61h-1.676c-1.151,0-2.017,0.201-2.597,0.602
			c-0.58,0.401-0.87,0.968-0.87,1.702c0,0.597,0.198,1.073,0.595,1.427C155.473,31.626,156.004,31.803,156.669,31.803z"/>
		<path fill="#FFFFFF" d="M169.297,34.042h-3.109V14.389h3.109V34.042z"/>
		<path fill="#FFFFFF" d="M175.989,34.042h-3.109V14.389h3.109V34.042z"/>
		<path fill="#FFFFFF" d="M185.47,34.297c-1.97,0-3.568-0.62-4.792-1.862c-1.224-1.241-1.836-2.893-1.836-4.958v-0.384
			c0-1.382,0.267-2.616,0.8-3.704c0.533-1.088,1.281-1.934,2.245-2.54c0.964-0.606,2.039-0.908,3.224-0.908
			c1.885,0,3.341,0.601,4.369,1.804c1.028,1.203,1.542,2.905,1.542,5.105v1.254h-9.046c0.094,1.143,0.475,2.047,1.145,2.712
			c0.669,0.666,1.512,0.998,2.527,0.998c1.424,0,2.584-0.576,3.48-1.727l1.676,1.599c-0.555,0.828-1.294,1.47-2.22,1.926
			C187.66,34.069,186.621,34.297,185.47,34.297z M185.098,22.437c-0.853,0-1.541,0.299-2.066,0.896
			c-0.524,0.597-0.859,1.429-1.004,2.495h5.924v-0.23c-0.068-1.041-0.345-1.828-0.831-2.361
			C186.634,22.704,185.96,22.437,185.098,22.437z"/>
		<path fill="#FFFFFF" d="M197.33,16.833v3.365h2.444v2.303h-2.444v7.728c0,0.529,0.104,0.91,0.314,1.145
			c0.209,0.235,0.582,0.352,1.119,0.352c0.358,0,0.72-0.043,1.088-0.128v2.406c-0.708,0.196-1.391,0.294-2.047,0.294
			c-2.389,0-3.583-1.318-3.583-3.953v-7.843h-2.278v-2.303h2.278v-3.365H197.33z"/>
	</g>
</g>
</svg>
